<svg id="svg" version="1.1" width="400" height="400" viewBox="0 0 400 400" xmlns="http://www.w3.org/2000/svg" xmlns:xlink="http://www.w3.org/1999/xlink" ><g id="svgg"><path id="path0" d="M0.000 0.231 C 0.000 0.683,125.393 125.846,125.846 125.846 C 126.100 125.846,97.992 97.531,63.385 62.923 C 4.875 4.413,-0.000 -0.409,0.000 0.231 M337.462 63.306 C 303.151 97.619,275.233 125.744,275.424 125.808 C 275.876 125.959,400.112 1.721,399.961 1.268 C 399.897 1.077,371.773 28.994,337.462 63.306 M349.692 213.846 C 349.692 247.152,349.796 274.339,349.923 274.260 C 350.050 274.182,350.154 246.995,350.154 213.846 C 350.154 180.697,350.050 153.511,349.923 153.432 C 349.796 153.354,349.692 180.540,349.692 213.846 M52.677 246.690 C 54.149 246.747,56.641 246.747,58.215 246.691 C 59.789 246.635,58.585 246.589,55.538 246.589 C 52.492 246.588,51.205 246.634,52.677 246.690 M63.616 337.050 C 29.136 371.588,1.080 399.898,1.269 399.961 C 1.459 400.025,29.948 371.744,64.578 337.115 C 103.195 298.500,127.303 274.173,126.925 274.204 C 126.551 274.235,101.630 298.973,63.616 337.050 M336.615 337.077 C 395.167 395.626,400.000 400.407,400.000 399.768 C 400.000 399.314,274.608 274.154,274.153 274.154 C 273.898 274.154,302.005 302.469,336.615 337.077 " stroke="none" fill="#dfdfdf" fill-rule="evenodd"></path><path id="path1" d="M63.385 62.923 L 126.307 125.846 200.616 125.846 L 274.925 125.846 337.463 63.306 C 371.858 28.909,400.000 0.593,400.000 0.383 C 400.000 0.078,359.348 0.000,200.231 0.000 L 0.462 0.000 63.385 62.923 M-0.000 200.231 C -0.000 360.125,0.077 400.000,0.386 400.000 C 0.788 400.000,126.154 274.784,126.154 274.383 C 126.154 274.257,114.110 274.154,99.391 274.154 L 72.627 274.154 72.544 267.308 L 72.462 260.462 66.692 260.462 C 63.060 260.462,60.917 260.348,60.909 260.154 C 60.901 259.985,60.895 256.904,60.895 253.308 L 60.896 246.769 55.525 246.769 L 50.154 246.769 50.154 186.309 L 50.154 125.849 87.693 125.770 L 125.231 125.692 62.616 63.077 L -0.000 0.462 -0.000 200.231 M337.846 63.846 L 275.847 125.846 301.616 125.846 L 327.385 125.846 327.385 132.769 L 327.385 139.692 332.769 139.692 L 338.154 139.692 338.154 146.627 L 338.154 153.562 344.077 153.525 L 350.000 153.487 350.000 213.825 L 350.000 274.164 312.538 274.156 C 291.935 274.152,275.077 274.254,275.077 274.383 C 275.077 274.753,399.648 399.223,399.834 399.038 C 399.925 398.946,399.966 309.541,399.923 200.358 L 399.846 1.846 337.846 63.846 M64.617 337.077 L 1.692 400.000 200.615 400.000 L 399.538 400.000 336.614 337.077 L 273.689 274.154 200.615 274.154 L 127.542 274.154 64.617 337.077 " stroke="none" fill="#ffffff" fill-rule="evenodd"></path><path id="path2" d="M50.154 186.308 L 50.154 246.462 55.615 246.461 L 61.077 246.461 61.077 253.308 L 61.077 260.154 66.923 260.211 L 72.769 260.268 72.852 267.210 L 72.935 274.151 211.313 274.076 L 349.692 274.000 349.770 213.923 L 349.848 153.846 344.693 153.794 C 341.858 153.765,339.192 153.730,338.769 153.717 L 338.000 153.692 337.917 146.853 L 337.834 140.014 332.533 139.930 L 327.231 139.846 327.148 133.000 L 327.065 126.154 188.609 126.154 L 50.154 126.154 50.154 186.308 M303.689 133.155 C 303.687 133.281,303.479 134.064,303.227 134.895 C 302.975 135.726,302.769 137.145,302.769 138.049 L 302.769 139.692 188.769 139.692 L 74.769 139.692 74.769 138.203 C 74.769 137.383,74.563 136.033,74.311 135.203 C 74.059 134.372,73.851 133.519,73.849 133.308 C 73.847 133.002,97.124 132.924,188.769 132.925 C 251.977 132.925,303.691 133.029,303.689 133.155 M314.124 148.311 C 313.785 149.204,313.538 150.629,313.538 151.696 L 313.538 153.538 199.580 153.538 L 85.621 153.538 85.462 151.462 C 85.375 150.319,85.096 148.796,84.842 148.077 L 84.380 146.769 199.545 146.769 L 314.710 146.769 314.124 148.311 M60.077 150.326 L 60.923 150.528 60.923 186.169 C 60.923 205.771,60.819 221.869,60.692 221.941 C 60.565 222.014,59.942 222.167,59.308 222.281 L 58.154 222.489 58.154 186.147 C 58.154 151.679,58.182 149.813,58.692 149.965 C 58.988 150.053,59.612 150.215,60.077 150.326 M326.462 160.785 C 326.462 160.878,326.260 161.344,326.013 161.822 C 321.870 169.833,331.749 180.441,340.797 177.696 C 341.628 177.444,342.342 177.236,342.385 177.234 C 342.427 177.232,342.462 193.695,342.462 213.818 L 342.462 250.406 340.846 249.976 C 330.947 247.340,322.301 257.183,326.297 266.538 C 326.516 267.051,320.927 267.077,211.385 267.077 C 105.117 267.077,96.257 267.038,96.434 266.576 C 100.102 257.016,92.159 247.953,81.772 249.846 L 80.928 250.000 80.927 213.846 L 80.927 177.692 81.617 177.798 C 91.884 179.365,99.528 171.655,96.803 162.480 C 96.531 161.562,96.308 160.767,96.308 160.713 C 96.308 160.659,148.092 160.615,211.385 160.615 C 274.677 160.615,326.462 160.691,326.462 160.785 M71.462 164.193 L 72.615 164.386 72.654 199.116 C 72.675 218.218,72.692 234.054,72.692 234.308 C 72.692 235.444,72.530 235.606,71.053 235.947 C 70.194 236.145,69.364 236.308,69.207 236.308 C 69.035 236.308,68.923 221.987,68.923 199.964 L 68.923 163.621 69.615 163.810 C 69.996 163.915,70.827 164.087,71.462 164.193 M205.385 170.293 C 181.620 173.569,164.766 195.311,167.670 218.945 C 170.236 239.832,186.412 255.507,207.615 257.654 L 209.231 257.817 209.231 250.923 L 209.231 244.028 208.077 243.863 C 198.905 242.550,193.513 239.210,191.511 233.601 C 188.811 226.039,196.943 219.238,202.745 224.205 C 206.184 227.148,206.059 232.073,202.469 235.100 L 200.864 236.454 201.868 237.293 C 203.097 238.318,205.112 239.036,207.462 239.285 L 209.231 239.472 209.231 232.528 L 209.231 225.585 211.077 226.381 L 212.923 227.178 212.923 233.281 L 212.923 239.385 213.654 239.385 C 217.312 239.385,220.923 235.773,220.923 232.114 C 220.923 227.986,219.633 226.780,210.301 222.184 C 202.719 218.451,199.633 216.546,197.617 214.359 C 187.904 203.814,193.496 186.250,207.502 183.313 L 209.231 182.950 209.231 176.398 C 209.231 170.351,209.189 169.849,208.692 169.879 C 208.396 169.897,206.908 170.083,205.385 170.293 M213.119 170.060 C 212.905 170.275,212.841 182.769,213.055 182.769 C 217.684 182.769,224.662 185.505,227.201 188.315 C 231.472 193.043,230.483 200.395,225.385 201.809 C 218.998 203.581,214.395 197.479,217.800 191.756 C 218.333 190.860,218.769 189.947,218.769 189.726 C 218.769 188.741,215.985 187.385,213.961 187.385 L 212.923 187.385 212.923 193.530 L 212.923 199.676 211.082 198.684 L 209.241 197.692 209.236 192.672 L 209.231 187.651 208.538 187.858 C 204.851 188.960,202.907 193.134,204.420 196.702 C 204.838 197.687,207.585 200.615,208.092 200.615 C 208.238 200.615,209.087 201.100,209.980 201.692 C 210.872 202.285,211.747 202.769,211.924 202.769 C 212.101 202.769,212.988 203.160,213.895 203.637 C 214.803 204.115,215.821 204.590,216.157 204.694 C 216.494 204.798,217.254 205.152,217.846 205.481 C 218.438 205.809,219.709 206.453,220.670 206.910 C 239.384 215.828,234.794 241.802,214.154 243.783 L 213.077 243.887 213.077 250.789 L 213.077 257.692 214.769 257.600 C 242.831 256.064,262.541 225.785,252.761 199.236 C 250.898 194.176,250.674 193.716,248.430 190.308 C 241.519 179.810,232.349 173.493,220.308 170.932 C 216.682 170.162,213.414 169.765,213.119 170.060 M121.385 200.210 C 110.058 202.766,106.292 216.105,114.653 224.058 C 122.430 231.457,135.753 226.785,137.600 216.010 C 139.183 206.778,130.364 198.184,121.385 200.210 M295.109 200.487 C 284.941 203.221,281.506 215.743,288.820 223.412 C 294.853 229.737,305.271 228.777,310.167 221.446 C 317.155 210.980,307.267 197.217,295.109 200.487 " stroke="none" fill="#10623c" fill-rule="evenodd"></path><path id="path3" d="M73.849 133.308 C 73.851 133.519,74.059 134.372,74.311 135.203 C 74.563 136.033,74.769 137.383,74.769 138.203 L 74.769 139.692 188.769 139.692 L 302.769 139.692 302.769 138.049 C 302.769 137.145,302.975 135.726,303.227 134.895 C 303.479 134.064,303.687 133.281,303.689 133.155 C 303.691 133.029,251.977 132.925,188.769 132.925 C 97.124 132.924,73.847 133.002,73.849 133.308 M84.842 148.077 C 85.096 148.796,85.375 150.319,85.462 151.462 L 85.621 153.538 199.580 153.538 L 313.538 153.538 313.538 151.696 C 313.538 150.629,313.785 149.204,314.124 148.311 L 314.710 146.769 199.545 146.769 L 84.380 146.769 84.842 148.077 M58.154 186.147 L 58.154 222.489 59.308 222.281 C 59.942 222.167,60.565 222.014,60.692 221.941 C 60.819 221.869,60.923 205.771,60.923 186.169 L 60.923 150.528 60.077 150.326 C 59.612 150.215,58.988 150.053,58.692 149.965 C 58.182 149.813,58.154 151.679,58.154 186.147 M96.308 160.713 C 96.308 160.767,96.531 161.562,96.803 162.480 C 99.528 171.655,91.884 179.365,81.617 177.798 L 80.927 177.692 80.927 213.846 L 80.928 250.000 81.772 249.846 C 92.159 247.953,100.102 257.016,96.434 266.576 C 96.257 267.038,105.117 267.077,211.385 267.077 C 320.927 267.077,326.516 267.051,326.297 266.538 C 322.301 257.183,330.947 247.340,340.846 249.976 L 342.462 250.406 342.462 213.818 C 342.462 193.695,342.427 177.232,342.385 177.234 C 342.342 177.236,341.628 177.444,340.797 177.696 C 331.749 180.441,321.870 169.833,326.013 161.822 C 326.260 161.344,326.462 160.878,326.462 160.785 C 326.462 160.691,274.677 160.615,211.385 160.615 C 148.092 160.615,96.308 160.659,96.308 160.713 M68.923 199.964 C 68.923 221.987,69.035 236.308,69.207 236.308 C 69.364 236.308,70.194 236.145,71.053 235.947 C 72.530 235.606,72.692 235.444,72.692 234.308 C 72.692 234.054,72.675 218.218,72.654 199.116 L 72.615 164.386 71.462 164.193 C 70.827 164.087,69.996 163.915,69.615 163.810 L 68.923 163.621 68.923 199.964 M209.231 176.398 L 209.231 182.950 207.502 183.313 C 193.496 186.250,187.904 203.814,197.617 214.359 C 199.633 216.546,202.719 218.451,210.301 222.184 C 219.633 226.780,220.923 227.986,220.923 232.114 C 220.923 235.773,217.312 239.385,213.654 239.385 L 212.923 239.385 212.923 233.281 L 212.923 227.178 211.077 226.381 L 209.231 225.585 209.231 232.528 L 209.231 239.472 207.462 239.285 C 205.112 239.036,203.097 238.318,201.868 237.293 L 200.864 236.454 202.469 235.100 C 206.059 232.073,206.184 227.148,202.745 224.205 C 196.943 219.238,188.811 226.039,191.511 233.601 C 193.513 239.210,198.905 242.550,208.077 243.863 L 209.231 244.028 209.231 250.923 L 209.231 257.817 207.615 257.654 C 170.140 253.860,153.895 209.321,180.290 182.737 C 187.619 175.355,198.327 170.507,208.692 169.879 C 209.189 169.849,209.231 170.351,209.231 176.398 M220.308 170.932 C 232.349 173.493,241.519 179.810,248.430 190.308 C 250.674 193.716,250.898 194.176,252.761 199.236 C 262.541 225.785,242.831 256.064,214.769 257.600 L 213.077 257.692 213.077 250.789 L 213.077 243.887 214.154 243.783 C 226.890 242.561,234.657 231.803,231.684 219.504 C 230.273 213.668,227.002 209.928,220.670 206.910 C 219.709 206.453,218.438 205.809,217.846 205.481 C 217.254 205.152,216.494 204.798,216.157 204.694 C 215.821 204.590,214.803 204.115,213.895 203.637 C 212.988 203.160,212.101 202.769,211.924 202.769 C 211.747 202.769,210.872 202.285,209.980 201.692 C 209.087 201.100,208.238 200.615,208.092 200.615 C 207.585 200.615,204.838 197.687,204.420 196.702 C 202.907 193.134,204.851 188.960,208.538 187.858 L 209.231 187.651 209.236 192.672 L 209.241 197.692 211.082 198.684 L 212.923 199.676 212.923 193.530 L 212.923 187.385 213.961 187.385 C 215.985 187.385,218.769 188.741,218.769 189.726 C 218.769 189.947,218.333 190.860,217.800 191.756 C 214.395 197.479,218.998 203.581,225.385 201.809 C 230.483 200.395,231.472 193.043,227.201 188.315 C 224.662 185.505,217.684 182.769,213.055 182.769 C 212.841 182.769,212.905 170.275,213.119 170.060 C 213.414 169.765,216.682 170.162,220.308 170.932 M127.990 200.525 C 143.017 206.182,139.650 227.767,123.754 227.685 C 108.905 227.608,104.974 205.657,118.968 200.954 C 122.307 199.832,125.718 199.670,127.990 200.525 M301.600 200.346 C 311.021 202.347,315.520 213.429,310.167 221.446 C 305.271 228.777,294.853 229.737,288.820 223.412 C 279.395 213.530,288.268 197.515,301.600 200.346 " stroke="none" fill="#22a24b" fill-rule="evenodd"></path><path id="path4" d="M188.533 126.077 L 327.065 126.155 327.148 133.000 L 327.231 139.846 332.538 139.930 L 337.846 140.015 337.846 146.758 C 337.846 150.467,337.950 153.566,338.077 153.645 C 338.204 153.724,338.268 150.617,338.220 146.740 L 338.132 139.692 332.758 139.692 L 327.385 139.692 327.385 132.769 L 327.385 125.846 188.692 125.923 L 50.000 125.999 188.533 126.077 M342.246 153.768 C 343.735 153.824,346.089 153.824,347.477 153.767 C 348.864 153.710,347.646 153.664,344.769 153.664 C 341.892 153.665,340.757 153.711,342.246 153.768 M72.747 267.231 C 72.748 271.123,72.792 272.673,72.845 270.675 C 72.899 268.677,72.899 265.492,72.845 263.598 C 72.791 261.704,72.747 263.338,72.747 267.231 " stroke="none" fill="#749b89" fill-rule="evenodd"></path></g></svg>