<?xml version="1.0" encoding="utf-8"?>
<!-- Generator: Adobe Illustrator 18.1.1, SVG Export Plug-In . SVG Version: 6.00 Build 0)  -->
<svg version="1.1" id="Layer_1" xmlns="http://www.w3.org/2000/svg" xmlns:xlink="http://www.w3.org/1999/xlink" x="0px" y="0px"
	 width="525.6px" height="288.4px" viewBox="-696 396.6 525.6 288.4" style="enable-background:new -696 396.6 525.6 288.4;"
	 xml:space="preserve">
<style type="text/css">
	.st0{fill:#94D6DF;}
	.st1{fill:#FFFFFF;}
	.st2{fill:#E38053;}
	.st3{fill:#F4F5F5;}
	.st4{fill:#CE4E2C;}
	.st5{fill:#187AA2;}
	.st6{fill:#F5F5F5;}
</style>
<g>
	<g>
		<g>
			<path class="st0" d="M-590.5,506.7c0,3.2-2.6,5.9-5.9,5.9h-90.8c-3.2,0-5.9-2.6-5.9-5.9v-63.2c0-3.2,2.6-5.9,5.9-5.9h90.8
				c3.2,0,5.9,2.6,5.9,5.9V506.7z"/>
		</g>
		<g>
			<polygon class="st0" points="-668,494.5 -645.5,530.7 -649.4,491.5 			"/>
		</g>
	</g>
	<g>
		<g>
			<path class="st0" d="M-593.8,611.5c0,2.2-1.8,4-4,4H-659c-2.2,0-4-1.8-4-4v-42.6c0-2.2,1.8-4,4-4h61.2c2.2,0,4,1.8,4,4
				C-593.8,568.9-593.8,611.5-593.8,611.5z"/>
		</g>
		<g>
			<polygon class="st0" points="-622.5,603.2 -607.4,627.6 -610,601.3 			"/>
		</g>
	</g>
	<g>
		<g>
			<path class="st0" d="M-280.7,523.2c0,3.7,3.1,6.8,6.8,6.8h93.8c3.7,0,6.8-3.1,6.8-6.8v-64.9c0-3.7-3.1-6.8-6.8-6.8h-93.8
				c-3.7,0-6.8,3.1-6.8,6.8V523.2z"/>
		</g>
		<g>
			<polygon class="st0" points="-187.5,520.1 -211.1,558 -207,517 			"/>
		</g>
	</g>
	<g>
		<path class="st1" d="M-225.9,481.9c0,0-1.6-10.7-10-8.2c0,0-12.6,4.9-4.9,17.4c0,0,4.9,7,12.5,12.3c0,0,4,4.4,10.9-1.7
			c0,0,15.6-11.8,8.4-23.6c0,0-4.3-6.4-11.6-3.2C-220.8,475-225.1,477.1-225.9,481.9z"/>
	</g>
	<g>
		<g>
			<path class="st2" d="M-355.5,496.7c0,4.1-3.3,7.4-7.4,7.4H-492c-4.1,0-7.4-3.3-7.4-7.4v-90.4c0-4.1,3.3-7.4,7.4-7.4h129.1
				c4.1,0,7.4,3.3,7.4,7.4V496.7z"/>
		</g>
		<g>
			<polygon class="st2" points="-469.8,484.3 -438.2,535.2 -443.7,480.2 			"/>
		</g>
	</g>
	<g>
		<g>
			<path class="st2" d="M-457.7,654.1c0,3.4,2.8,6.1,6.1,6.1h107.4c3.4,0,6.1-2.8,6.1-6.1v-75.2c0-3.4-2.8-6.1-6.1-6.1h-107.4
				c-3.4,0-6.1,2.8-6.1,6.1L-457.7,654.1L-457.7,654.1z"/>
		</g>
		<g>
			<polygon class="st2" points="-377.3,640.3 -403.6,682.6 -399,636.9 			"/>
		</g>
	</g>
	<g>
		<g>
			<path class="st1" d="M-478.2,581.8c0,3.7-3,6.7-6.7,6.7h-117.6c-3.7,0-6.7-3-6.7-6.7v-82.3c0-3.7,3-6.7,6.7-6.7h117.6
				c3.7,0,6.7,3,6.7,6.7L-478.2,581.8L-478.2,581.8z"/>
		</g>
		<g>
			<polygon class="st1" points="-537.1,569.3 -508.3,615.6 -513.3,565.5 			"/>
		</g>
	</g>
	<g>
		<g>
			<path class="st1" d="M-397,577c0,4.1,3.3,7.4,7.4,7.4h129.1c4.1,0,7.4-3.3,7.4-7.4v-90.4c0-4.1-3.3-7.4-7.4-7.4h-129.1
				c-4.1,0-7.4,3.3-7.4,7.4L-397,577L-397,577z"/>
		</g>
		<g>
			<polygon class="st1" points="-273.1,566.5 -304.7,617.3 -299.2,562.4 			"/>
		</g>
	</g>
	<g>
		<g>
			<path class="st3" d="M-385,446.9c-0.2,3.4-2.8,7.9-10.1,13.1c-7.2,5-19.2,10.7-33.7,10.5c-14.5,0.3-26.5-5.5-33.7-10.5
				c-7.4-5.3-9.9-9.8-10.1-13.1c0.2-3.4,2.8-7.9,10.1-13.1c7.2-5,19.2-10.7,33.7-10.5c14.5-0.3,26.5,5.5,33.7,10.5
				C-387.8,439.1-385.2,443.6-385,446.9z"/>
		</g>
		<g>
			<circle class="st2" cx="-428" cy="446.7" r="19.8"/>
		</g>
		<g>
			<circle class="st4" cx="-428" cy="446.7" r="10.6"/>
		</g>
		<g>
			<circle class="st3" cx="-419.5" cy="439.6" r="5.8"/>
		</g>
	</g>
	<g>
		<g>
			<circle class="st1" cx="-635.6" cy="578.6" r="3.6"/>
		</g>
		<g>
			<circle class="st1" cx="-623" cy="578.6" r="3.6"/>
		</g>
		<g>
			<circle class="st1" cx="-623" cy="590.6" r="3.6"/>
		</g>
		<g>
			<circle class="st1" cx="-635.6" cy="590.6" r="3.6"/>
		</g>
		<g>
			<circle class="st1" cx="-635.6" cy="602.3" r="3.6"/>
		</g>
		<g>
			<circle class="st1" cx="-623" cy="602.3" r="3.6"/>
		</g>
	</g>
	<g>
		<g>
			<path class="st1" d="M-659,499.4c-3.4,0-9.4-2-9.8-9.7c0-0.8,0.6-1.5,1.4-1.6c0.8,0,1.5,0.6,1.6,1.4c0.4,7.1,6.9,6.8,7.1,6.8
				c0,0,0,0,0,0c2.3,0,3.9-0.6,5.1-1.8c2-2.1,1.8-5.4,1.8-5.4c0-0.4-0.6-9.2,3.8-12.9c4.8-4.1,4.9-8.7,4.9-8.9
				c0.1-4.8-1.2-8.5-3.7-11c-3.7-3.6-9.1-3.4-9.2-3.4c-4.5,0-8,1.3-10.4,3.7c-3.9,4-3.7,9.9-3.7,10c0,0.8-0.6,1.5-1.4,1.6
				c-0.8,0-1.5-0.6-1.6-1.4c0-0.3-0.2-7.3,4.5-12.2c3-3.1,7.2-4.6,12.5-4.6c0.2,0,6.6-0.3,11.3,4.2c3.2,3,4.8,7.5,4.7,13.2
				c0,0.2,0,6.1-5.9,11.2c-2.7,2.3-2.9,8.3-2.8,10.4c0,0.2,0.3,4.6-2.6,7.7c-1.7,1.8-4.2,2.7-7.2,2.8
				C-658.8,499.4-658.9,499.4-659,499.4z"/>
		</g>
		<g>
			<path class="st1" d="M-661.6,482.2c-0.4,0-0.8,0-1.2-0.1c-0.8-0.1-1.4-0.9-1.3-1.7c0.1-0.8,0.9-1.4,1.7-1.3c1,0.1,1.8,0,2.1-0.3
				c0.5-0.4,0.4-1.3,0.4-1.3c0,0,0-0.1,0-0.2c0-0.6-1.2-1.9-2.3-2.7c-3.6-2.3-3.5-6.5-2.9-8.5c0.6-2.6,3.2-7.4,9.1-7.2
				c0.1,0,3.4,0.1,5.6,2.3c1.3,1.4,2,3.1,2,5.3c0,0.5,0.1,2.6-1.1,4.3c-0.5,0.7-1.4,0.8-2.1,0.4c-0.7-0.5-0.8-1.4-0.4-2.1
				c0.7-1,0.6-2.4,0.6-2.4c0,0,0-0.1,0-0.1c0-4.4-3.8-4.7-4.6-4.7c-5.1-0.2-6.1,4.7-6.1,4.9c0,0,0,0.1,0,0.1c0,0.1-1,3.5,1.7,5.2
				c0.7,0.4,3.6,2.6,3.7,5.1c0,0.5,0.1,2.3-1.3,3.7C-659,481.8-660.2,482.2-661.6,482.2z"/>
		</g>
	</g>
	<g>
		<g>
			<path class="st3" d="M-360.5,613.5c-0.1-0.4-0.4-0.9-0.7-1.2c-1.6-1.4-17.3-13.8-24.7-13.8c-4,0-6.8,1.9-9,3.3
				c-1.3,0.9-2.5,1.7-3.4,1.7c-0.9,0-2-0.8-3.4-1.7c-2.2-1.5-5-3.3-9-3.3c-7.4,0-23.2,12.4-24.7,13.8c-0.4,0.4-0.7,0.8-0.8,1.3
				l-0.1,0.6c0,0.7,0.3,1.3,0.8,1.8c0.8,0.7,1.7,1.8,2.8,3c2.8,3.2,6.7,7.5,12.2,11.1c7,4.6,14.4,6.9,22,6.9
				c7.7,0,15.2-2.4,22.3-7.2c5.6-3.7,9.6-8.3,12.3-11.2c1-1.1,3.1-3.4,3.3-3.7C-360.4,614.7-360.3,614.1-360.5,613.5z M-378.2,627.4
				c-6.5,4.4-13.3,6.6-20.2,6.6c-6.9,0-13.6-2.1-20-6.3c-5.1-3.4-12.6-10.9-12.2-11.3c0.1-0.1,3.3,1.3,5,2c6.6,2.8,16.5,7,27.1,7
				c11,0,21-4.3,27.6-7.2c1.6-0.7,4.5-2,4.5-1.8C-366.2,616.7-373,623.9-378.2,627.4z M-421.7,616.5c0-0.3,18.5-1.7,22.5-1.8
				c0.6,0,1.1,0,1.7,0c4.3,0,22.6,1.3,22.6,1.7c0,0.6-14.7,5.8-23.6,5.8C-407.2,622.2-421.7,617.2-421.7,616.5z M-367.3,613.4
				c-2,0-4.6-0.1-7.6-0.2c-2.6-0.1-5.6-0.4-8.9-0.7c-4.5-0.5-9.2-1-13.7-1c-0.6,0-1.1,0-1.7,0c-4.2,0-8.8,0.5-13.3,1
				c-3.3,0.4-6.5,0.7-9.1,0.8c-1.7,0.1-2.9,0.1-3.9,0.2c-1.3,0.1-2.3,0.1-3.7,0.1c-1.5,0-2.3-0.2-1.8-0.6c2.2-1.7,4.3-3.3,8-5.7
				c5.6-3.6,10-5.6,12.3-5.6c2.9,0,4.9,1.4,6.9,2.7c1.8,1.2,3.4,2.3,5.5,2.3c2,0,3.7-1.1,5.5-2.3c2-1.3,4.1-2.7,6.9-2.7
				c2.2,0,6.7,2.1,12.3,5.6c3.5,2.3,6.2,4,8.1,5.7C-365.1,613.4-365.9,613.4-367.3,613.4z"/>
		</g>
		<g>
			<polygon class="st3" points="-433.7,612.8 -412.7,600.3 -408.6,600.4 -398.7,605.1 -389.2,600.3 -384.1,600.1 -363.4,613.2 
				-368.4,615.2 -379.3,614.5 -402.1,613.1 -420.6,613.2 -424.3,615.3 -434.2,614 			"/>
		</g>
		<g>
			<polygon class="st3" points="-425.4,615.5 -410.4,621.9 -398.2,624.1 -377.7,619.5 -364.3,614.5 -365.6,618.5 -375.8,627.2 
				-386.9,633.1 -399.5,635.2 -412.2,633.8 -422.4,627 -431.2,617.9 -433.3,613.4 			"/>
		</g>
	</g>
	<g>
		<g>
			<path class="st5" d="M-631.2,460.1c-1.1-1.1-2.8-1.1-3.9,0c-1.1,1.1-1.1,2.8,0,3.9c5.1,5.1,5.1,13.3,0,18.4
				c-1.1,1.1-1.1,2.8,0,3.9c0.5,0.5,1.2,0.8,1.9,0.8c0.7,0,1.4-0.3,1.9-0.8C-624,479-624,467.3-631.2,460.1z"/>
		</g>
		<g>
			<path class="st5" d="M-628.2,454c-1.1,1.1-1.1,2.8,0,3.9c4.1,4.1,6.4,9.5,6.4,15.3c0,5.8-2.3,11.2-6.4,15.3
				c-1.1,1.1-1.1,2.8,0,3.9c0.5,0.5,1.2,0.8,1.9,0.8c0.7,0,1.4-0.3,1.9-0.8c5.1-5.1,7.9-11.9,7.9-19.2c0-7.2-2.8-14-7.9-19.2
				C-625.4,453-627.1,453-628.2,454z"/>
		</g>
	</g>
	<g>
		<g>
			<g>
				<path class="st2" d="M-547.1,544.5c0,18.3,1.8,29.3-6.1,29c-7.6,0-23-11.1-24.8-29c-2.4-20.3,13.5-36.1,23-36.1
					C-545.2,507.8-547.3,523.6-547.1,544.5z"/>
			</g>
		</g>
		<g>
			<g>
				<path class="st2" d="M-568.8,517.8c0.5,6.8,5.6,12,11.3,12c5.8,0,10.4-5.3,10.4-12c0-7.1-5.1-13-11.4-13
					C-564.7,504.8-569.3,510.8-568.8,517.8z"/>
			</g>
		</g>
		<g>
			<g>
				<path class="st2" d="M-580,528c0.7,6.3,5.8,11.3,11.4,11.3c5.6,0,9.9-5,9.7-11.3c-0.3-6.6-5.4-12.2-11.5-12.2
					C-576.5,515.9-580.8,521.4-580,528z"/>
			</g>
		</g>
		<g>
			<g>
				<path class="st2" d="M-581.8,544.3c0.7,5.7,5.6,10.2,10.9,10.2c5.3,0,9.4-4.5,9.1-10.2c-0.3-5.9-5.2-10.9-10.9-10.9
					C-578.5,533.4-582.5,538.4-581.8,544.3z"/>
			</g>
		</g>
		<g>
			<g>
				<path class="st2" d="M-577.8,558.2c0.6,5.2,5.2,9.3,10.2,9.3c5.1,0,9-4.1,8.8-9.3c-0.2-5.4-4.9-9.9-10.3-9.9
					C-574.5,548.3-578.4,552.8-577.8,558.2z"/>
			</g>
		</g>
		<g>
			<g>
				<path class="st2" d="M-565.9,566.6c0.4,4.9,4.6,8.7,9.6,8.7c4.9,0,8.9-3.8,8.9-8.7c0-5.1-4.3-9.3-9.6-9.3
					C-562.4,557.3-566.3,561.6-565.9,566.6z"/>
			</g>
		</g>
		<g>
			<g>
				<path class="st6" d="M-561.5,539.4c-6.4,0-12.2-3.6-12.5-3.8c-0.5-0.3-0.7-1-0.3-1.5c0.3-0.5,1-0.7,1.5-0.3
					c0.1,0.1,7.6,4.7,14.2,3.1c2.9-0.7,5.2-2.5,6.9-5.3c0.3-0.5,1-0.7,1.5-0.4c0.5,0.3,0.7,1,0.4,1.5c-2,3.4-4.8,5.5-8.3,6.3
					C-559.2,539.3-560.3,539.4-561.5,539.4z"/>
			</g>
		</g>
		<g>
			<g>
				<path class="st6" d="M-570.2,554.3c-0.5,0-1-0.4-1.1-0.9c-0.1-0.6,0.3-1.2,0.9-1.3c3.4-0.6,5.7-1.9,6.8-4
					c1.9-3.7-0.5-8.7-0.5-8.7c-0.3-0.5,0-1.2,0.5-1.5c0.5-0.3,1.2,0,1.5,0.5c0.1,0.2,2.9,6,0.5,10.7c-1.4,2.7-4.2,4.5-8.4,5.2
					C-570,554.3-570.1,554.3-570.2,554.3z"/>
			</g>
		</g>
		<g>
			<g>
				<path class="st6" d="M-559.2,530c-0.2,0-0.4-0.1-0.6-0.2c-6.6-4.1-11-14.7-11.2-15.1c-0.2-0.6,0-1.2,0.6-1.4
					c0.6-0.2,1.2,0,1.4,0.6c0,0.1,4.3,10.3,10.4,14.1c0.5,0.3,0.7,1,0.4,1.5C-558.5,529.8-558.9,530-559.2,530z"/>
			</g>
		</g>
		<g>
			<g>
				<path class="st6" d="M-566.6,569.9c-0.1,0-0.1,0-0.2,0c-0.6-0.1-1-0.6-0.9-1.2c0-0.1,1.6-10.4,11.9-11.8
					c0.6-0.1,1.2,0.3,1.2,0.9c0.1,0.6-0.3,1.2-0.9,1.2c-8.7,1.1-10,9.6-10.1,9.9C-565.6,569.5-566,569.9-566.6,569.9z"/>
			</g>
		</g>
		<g>
			<g>
				<g>
					<path class="st2" d="M-544.2,544c0.2-20.9-1.9-36.7,7.9-36.2c9.5,0,25.4,15.8,23,36.2c-1.8,17.9-17.2,29.1-24.9,29.1
						C-546,573.4-544.2,562.3-544.2,544z"/>
				</g>
			</g>
			<g>
				<g>
					<path class="st2" d="M-526,566.6c0.4-5.1-3.6-9.3-8.9-9.3c-5.3,0-9.6,4.2-9.6,9.3c0,4.9,4,8.7,8.9,8.7
						C-530.6,575.3-526.3,571.5-526,566.6z"/>
				</g>
			</g>
			<g>
				<g>
					<path class="st2" d="M-514.7,558.8c0.6-5.4-3.3-9.9-8.7-9.9c-5.4,0-10,4.5-10.2,9.9c-0.2,5.2,3.7,9.2,8.8,9.2
						C-519.8,568-515.2,564-514.7,558.8z"/>
				</g>
			</g>
			<g>
				<g>
					<path class="st2" d="M-509.5,544.1c0.7-5.9-3.3-10.9-9-10.9c-5.7,0-10.6,5-11,10.9c-0.3,5.7,3.8,10.2,9.1,10.2
						C-515,554.3-510.2,549.8-509.5,544.1z"/>
				</g>
			</g>
			<g>
				<g>
					<path class="st2" d="M-510.2,528.8c0.8-6.6-3.5-12.1-9.5-12.1c-6,0-11.2,5.5-11.5,12.1c-0.3,6.3,4,11.2,9.6,11.2
						C-516,540.1-510.9,535.1-510.2,528.8z"/>
				</g>
			</g>
			<g>
				<g>
					<path class="st2" d="M-521.7,517.8c0.5-7.1-4.1-13-10.3-13c-6.2,0-11.3,6-11.4,13c0,6.8,4.6,12,10.4,12
						C-527.3,529.9-522.2,524.6-521.7,517.8z"/>
				</g>
			</g>
			<g>
				<g>
					<path class="st6" d="M-540.9,556.5c-0.2,0-0.4-0.1-0.6-0.2c-0.5-0.3-0.6-1-0.3-1.5c8.2-12,22.7-2.6,22.8-2.5
						c0.5,0.3,0.6,1,0.3,1.5c-0.3,0.5-1,0.6-1.5,0.3c-0.5-0.4-12.8-8.3-19.8,1.9C-540.2,556.3-540.6,556.5-540.9,556.5z"/>
				</g>
			</g>
			<g>
				<g>
					<path class="st6" d="M-528.9,550.5c-0.4,0-0.9-0.3-1-0.7c-0.1-0.2-2.1-5.7,0.5-10.4c1.7-3,5-5,9.7-5.8c0.6-0.1,1.2,0.3,1.3,0.9
						c0.1,0.6-0.3,1.2-0.9,1.3c-4,0.7-6.7,2.3-8.1,4.7c-2.1,3.8-0.4,8.5-0.4,8.5c0.2,0.6-0.1,1.2-0.6,1.4
						C-528.6,550.5-528.7,550.5-528.9,550.5z"/>
				</g>
			</g>
			<g>
				<g>
					<path class="st6" d="M-525.4,570.2c-0.5,0-0.9-0.3-1-0.8c0-0.1-2.5-7.5-7.5-10.4c-0.5-0.3-0.7-1-0.4-1.5c0.3-0.5,1-0.7,1.5-0.4
						c5.7,3.4,8.3,11.3,8.4,11.6c0.2,0.6-0.1,1.2-0.7,1.4C-525.1,570.2-525.3,570.2-525.4,570.2z"/>
				</g>
			</g>
			<g>
				<g>
					<path class="st6" d="M-534.7,530.2c-0.5,0-1-0.4-1.1-0.9c-0.1-0.6,0.3-1.2,0.9-1.2c10-1.4,13.2-13.4,13.3-13.5
						c0.2-0.6,0.8-0.9,1.3-0.8c0.6,0.2,0.9,0.8,0.8,1.3c-0.1,0.6-3.6,13.5-15.1,15.2C-534.6,530.2-534.6,530.2-534.7,530.2z"/>
				</g>
			</g>
		</g>
	</g>
	<g>
		<path class="st5" d="M-302,534.1l0-4.5c0-3-2.5-5.5-5.5-5.5c-0.6,0-1.3,0.1-1.8,0.3l0-1.2c0-3-2.5-5.5-5.5-5.5
			c-1.9,0-3.6,1-4.6,2.5c0-3-2.5-5.4-5.5-5.4c-1.2,0-2.4,0.4-3.3,1.1l0-16.9c0-3-2.5-5.5-5.5-5.5s-5.5,2.5-5.5,5.5l0.1,39.4
			l-9.2-9.1c-2.2-2.1-5.6-2.1-7.8,0c-2.1,2.1-2.1,5.6,0,7.8l9,9c2.4,2.6,4.4,5.5,5.8,8.8l0,0c0,0,0,0,0,0.1c0.5,1.2,1,2.5,1.3,3.8
			c1,2.5,2.6,5.4,4.4,6.3c0,0,8.2,5.3,24.1,2.2c0,0,9.7-2,9.6-14.9h0l0-17.2C-301.9,534.8-302,534.5-302,534.1z"/>
	</g>
</g>
</svg>
