<svg id="svg" version="1.1" width="400" height="249.84615384615387" viewBox="0 0 400 249.84615384615387" xmlns="http://www.w3.org/2000/svg" xmlns:xlink="http://www.w3.org/1999/xlink" ><g id="svgg"><path id="path0" d="M193.625 14.750 C 193.534 14.897,192.036 15.000,189.977 15.000 C 187.103 15.000,186.459 15.066,186.340 15.375 C 186.228 15.667,185.733 15.750,184.098 15.750 C 182.866 15.750,182.000 15.853,182.000 16.000 C 182.000 16.143,181.247 16.250,180.242 16.250 C 178.910 16.250,178.449 16.341,178.340 16.625 C 178.234 16.901,177.793 17.001,176.661 17.004 C 175.577 17.007,175.235 17.079,175.500 17.250 C 175.764 17.421,175.414 17.493,174.313 17.496 C 173.092 17.499,172.750 17.582,172.750 17.875 C 172.750 18.158,172.444 18.250,171.500 18.250 C 170.813 18.250,170.250 18.363,170.250 18.500 C 170.250 18.637,169.814 18.750,169.281 18.750 C 168.724 18.750,168.179 18.910,168.000 19.125 C 167.829 19.331,167.309 19.500,166.844 19.500 C 166.380 19.500,166.000 19.613,166.000 19.750 C 166.000 19.887,165.603 20.000,165.117 20.000 C 164.563 20.000,164.181 20.140,164.090 20.375 C 164.002 20.606,163.622 20.750,163.098 20.750 C 162.632 20.750,162.250 20.863,162.250 21.000 C 162.250 21.137,161.909 21.250,161.492 21.250 C 161.049 21.250,160.675 21.406,160.590 21.625 C 160.508 21.839,160.136 22.000,159.723 22.000 C 159.325 22.000,159.000 22.113,159.000 22.250 C 159.000 22.387,158.659 22.500,158.242 22.500 C 157.799 22.500,157.425 22.656,157.340 22.875 C 157.261 23.081,156.927 23.250,156.598 23.250 C 156.269 23.250,156.000 23.363,156.000 23.500 C 156.000 23.637,155.719 23.750,155.375 23.750 C 155.031 23.750,154.750 23.863,154.750 24.000 C 154.750 24.137,154.469 24.250,154.125 24.250 C 153.781 24.250,153.500 24.369,153.500 24.515 C 153.500 24.660,153.613 24.710,153.750 24.625 C 153.887 24.540,154.000 24.590,154.000 24.735 C 154.000 25.087,153.671 25.071,153.300 24.700 C 153.067 24.467,153.000 24.467,153.000 24.700 C 153.000 24.865,152.719 25.000,152.375 25.000 C 152.031 25.000,151.750 25.113,151.750 25.250 C 151.750 25.387,151.521 25.500,151.242 25.500 C 150.963 25.500,150.670 25.669,150.590 25.875 C 150.511 26.081,150.177 26.250,149.848 26.250 C 149.519 26.250,149.250 26.363,149.250 26.500 C 149.250 26.637,149.021 26.750,148.742 26.750 C 148.463 26.750,148.170 26.919,148.090 27.125 C 148.011 27.331,147.762 27.504,147.536 27.508 C 147.000 27.518,146.207 28.124,146.434 28.350 C 146.531 28.447,146.416 28.452,146.180 28.361 C 145.857 28.238,145.750 28.328,145.750 28.723 C 145.750 29.118,145.594 29.250,145.125 29.250 C 144.736 29.250,144.500 29.392,144.500 29.625 C 144.500 29.858,144.264 30.000,143.875 30.000 C 143.531 30.000,143.250 30.113,143.250 30.250 C 143.250 30.387,142.969 30.500,142.625 30.500 C 142.236 30.500,142.000 30.642,142.000 30.875 C 142.000 31.096,141.769 31.252,141.438 31.254 C 140.983 31.257,140.947 31.304,141.250 31.500 C 141.525 31.677,141.341 31.743,140.563 31.746 C 139.610 31.750,139.500 31.812,139.500 32.348 C 139.500 32.677,139.315 33.017,139.090 33.104 C 138.744 33.237,138.730 33.200,139.000 32.875 C 139.177 32.662,139.257 32.424,139.179 32.346 C 139.101 32.268,138.843 32.579,138.606 33.038 C 138.227 33.770,138.154 33.813,138.005 33.390 C 137.901 33.091,137.772 33.012,137.667 33.182 C 137.574 33.332,137.567 33.634,137.651 33.852 C 137.758 34.130,137.660 34.250,137.327 34.250 C 137.065 34.250,136.698 34.391,136.513 34.563 C 136.241 34.815,136.214 34.809,136.373 34.530 C 136.507 34.295,136.459 34.222,136.222 34.300 C 136.031 34.363,135.839 34.658,135.795 34.957 C 135.738 35.343,135.540 35.500,135.108 35.500 C 134.773 35.500,134.500 35.612,134.500 35.750 C 134.500 35.888,134.291 36.000,134.035 36.000 C 133.779 36.000,133.359 36.281,133.101 36.625 C 132.843 36.969,132.489 37.250,132.316 37.250 C 132.142 37.250,132.000 37.419,132.000 37.625 C 132.000 37.831,131.803 38.004,131.563 38.008 C 131.022 38.018,130.250 38.581,130.250 38.965 C 130.250 39.122,130.106 39.250,129.930 39.250 C 129.754 39.250,129.448 39.475,129.250 39.750 C 129.052 40.025,128.756 40.250,128.593 40.250 C 128.430 40.250,127.713 40.813,127.000 41.500 C 126.287 42.188,125.601 42.750,125.477 42.750 C 125.352 42.750,125.250 42.871,125.250 43.018 C 125.250 43.364,124.614 44.000,124.268 44.000 C 124.121 44.000,124.000 44.112,124.000 44.250 C 124.000 44.388,123.550 44.950,123.000 45.500 C 122.450 46.050,121.888 46.500,121.750 46.500 C 121.612 46.500,121.500 46.621,121.500 46.768 C 121.500 47.100,120.869 47.750,120.547 47.750 C 120.416 47.750,120.247 47.983,120.173 48.269 C 120.098 48.554,119.797 48.850,119.504 48.926 C 119.196 49.007,119.025 49.205,119.098 49.395 C 119.178 49.604,119.092 49.674,118.862 49.586 C 118.603 49.486,118.500 49.632,118.500 50.098 C 118.500 50.457,118.416 50.737,118.313 50.720 C 117.793 50.638,117.250 50.777,117.250 50.992 C 117.250 51.125,117.419 51.170,117.625 51.090 C 117.862 50.999,118.000 51.094,118.000 51.348 C 118.000 51.569,117.831 51.750,117.625 51.750 C 117.419 51.750,117.250 51.862,117.250 52.000 C 117.250 52.138,117.141 52.250,117.008 52.250 C 116.875 52.250,116.829 52.053,116.906 51.813 C 116.992 51.546,116.965 51.482,116.836 51.650 C 116.720 51.801,116.456 51.989,116.250 52.068 C 115.951 52.181,115.964 52.215,116.313 52.230 C 116.553 52.241,116.750 52.367,116.750 52.511 C 116.750 52.654,116.609 52.754,116.438 52.731 C 115.825 52.652,115.500 52.754,115.500 53.027 C 115.500 53.179,115.675 53.236,115.888 53.155 C 116.116 53.067,116.211 53.110,116.119 53.259 C 116.033 53.399,115.789 53.482,115.577 53.444 C 115.365 53.406,115.064 53.600,114.908 53.875 C 114.752 54.150,114.565 54.431,114.492 54.500 C 114.418 54.569,114.362 54.841,114.367 55.104 C 114.371 55.368,114.219 55.635,114.028 55.699 C 113.817 55.769,113.749 55.704,113.855 55.532 C 114.098 55.139,113.785 55.179,113.369 55.595 C 113.179 55.785,113.084 56.001,113.158 56.075 C 113.232 56.149,113.058 56.335,112.771 56.489 C 112.485 56.642,112.250 56.932,112.250 57.134 C 112.250 57.335,112.138 57.500,112.000 57.500 C 111.862 57.500,111.750 57.669,111.750 57.875 C 111.750 58.081,111.622 58.250,111.465 58.250 C 111.081 58.250,110.518 59.022,110.508 59.563 C 110.504 59.803,110.388 60.000,110.250 60.000 C 110.112 60.000,110.000 60.169,110.000 60.375 C 110.000 60.581,109.872 60.750,109.715 60.750 C 109.331 60.750,108.768 61.522,108.758 62.063 C 108.754 62.303,108.581 62.500,108.375 62.500 C 108.169 62.500,108.000 62.669,108.000 62.875 C 108.000 63.081,107.888 63.250,107.750 63.250 C 107.612 63.250,107.500 63.531,107.500 63.875 C 107.500 64.219,107.379 64.500,107.232 64.500 C 106.728 64.500,106.250 65.214,106.250 65.965 C 106.250 66.505,106.105 66.762,105.732 66.881 C 105.420 66.980,105.268 67.186,105.349 67.398 C 105.423 67.591,105.369 67.750,105.227 67.750 C 105.086 67.750,105.045 67.870,105.135 68.017 C 105.234 68.177,105.115 68.252,104.838 68.204 C 104.518 68.149,104.350 68.298,104.295 68.688 C 104.251 68.997,104.089 69.250,103.935 69.250 C 103.781 69.250,103.873 69.428,104.140 69.645 C 104.554 69.983,104.561 70.021,104.188 69.903 C 103.907 69.815,103.750 69.897,103.750 70.133 C 103.750 70.335,103.581 70.500,103.375 70.500 C 103.169 70.500,103.000 70.669,103.000 70.875 C 103.000 71.081,102.880 71.250,102.734 71.250 C 102.588 71.250,102.489 71.447,102.513 71.688 C 102.595 72.497,102.501 73.335,102.345 73.179 C 102.260 73.093,102.035 73.179,101.845 73.369 C 101.446 73.769,101.383 74.102,101.750 73.875 C 101.888 73.790,102.000 73.896,102.000 74.110 C 102.000 74.325,101.916 74.482,101.813 74.460 C 101.486 74.391,100.750 74.794,100.750 75.042 C 100.750 75.172,100.862 75.210,101.000 75.125 C 101.138 75.040,101.250 75.153,101.250 75.375 C 101.250 75.597,101.138 75.710,101.000 75.625 C 100.863 75.540,100.750 75.590,100.750 75.735 C 100.750 75.881,100.581 76.000,100.375 76.000 C 100.142 76.000,100.000 76.236,100.000 76.625 C 100.000 76.969,99.888 77.250,99.750 77.250 C 99.612 77.250,99.500 77.519,99.500 77.848 C 99.500 78.177,99.331 78.511,99.125 78.590 C 98.919 78.670,98.750 79.012,98.750 79.352 C 98.750 79.692,98.638 80.040,98.500 80.125 C 98.363 80.210,98.250 80.610,98.250 81.015 C 98.250 81.502,98.123 81.750,97.875 81.750 C 97.669 81.750,97.500 81.968,97.500 82.235 C 97.500 82.502,97.388 82.790,97.250 82.875 C 97.112 82.960,97.000 83.417,97.000 83.890 C 97.000 84.488,96.886 84.750,96.625 84.750 C 96.392 84.750,96.250 84.986,96.250 85.375 C 96.250 85.719,96.138 86.000,96.000 86.000 C 95.862 86.000,95.750 86.382,95.750 86.848 C 95.750 87.372,95.606 87.752,95.375 87.840 C 95.146 87.928,95.000 88.307,95.000 88.817 C 95.000 89.275,94.859 89.808,94.688 90.000 C 94.422 90.299,94.440 90.301,94.813 90.020 C 95.185 89.738,95.250 89.749,95.250 90.094 C 95.250 90.317,95.081 90.500,94.875 90.500 C 94.667 90.500,94.500 90.722,94.500 91.000 C 94.500 91.275,94.366 91.500,94.202 91.500 C 94.038 91.500,94.123 91.665,94.390 91.867 C 94.829 92.199,94.833 92.235,94.438 92.242 C 94.178 92.247,94.000 92.442,94.000 92.723 C 94.000 92.984,93.831 93.261,93.625 93.340 C 93.193 93.506,93.107 94.282,93.531 94.187 C 93.686 94.153,93.846 94.268,93.888 94.444 C 93.929 94.619,93.905 94.646,93.835 94.505 C 93.624 94.079,93.250 94.486,93.250 95.140 C 93.250 95.475,93.138 95.750,93.000 95.750 C 92.862 95.750,92.750 95.869,92.750 96.015 C 92.750 96.160,92.862 96.210,93.000 96.125 C 93.138 96.040,93.250 96.083,93.250 96.220 C 93.250 96.358,93.137 96.540,93.000 96.625 C 92.862 96.710,92.750 97.110,92.750 97.515 C 92.750 98.002,92.623 98.250,92.375 98.250 C 92.092 98.250,92.000 98.556,92.000 99.500 C 92.000 100.188,91.888 100.750,91.750 100.750 C 91.612 100.750,91.500 101.408,91.500 102.223 C 91.500 103.302,91.400 103.735,91.125 103.840 C 90.841 103.949,90.750 104.408,90.750 105.721 C 90.750 106.883,90.647 107.496,90.438 107.573 C 90.188 107.665,90.188 107.754,90.438 108.019 C 90.811 108.415,90.853 109.250,90.500 109.250 C 90.362 109.250,90.250 109.800,90.250 110.473 C 90.250 111.330,90.138 111.740,89.875 111.840 C 89.468 111.996,89.358 113.132,89.727 113.361 C 89.851 113.438,89.894 113.276,89.823 113.000 C 89.749 112.720,89.815 112.500,89.971 112.500 C 90.124 112.500,90.250 112.838,90.250 113.250 C 90.250 113.726,90.122 114.000,89.901 114.000 C 89.621 114.000,89.544 114.641,89.516 117.188 C 89.497 118.971,89.375 120.412,89.241 120.458 C 88.915 120.571,88.923 129.073,89.248 129.398 C 89.389 129.539,89.510 131.348,89.526 133.573 C 89.542 135.733,89.640 137.500,89.743 137.500 C 89.846 137.500,89.898 137.092,89.858 136.593 C 89.809 135.967,89.867 135.767,90.046 135.946 C 90.201 136.101,90.290 137.412,90.267 139.206 C 90.243 141.064,90.327 142.268,90.489 142.368 C 90.632 142.457,90.750 143.201,90.750 144.023 C 90.750 145.119,90.850 145.554,91.125 145.660 C 91.400 145.765,91.500 146.198,91.500 147.277 C 91.500 148.092,91.612 148.750,91.750 148.750 C 91.888 148.750,92.000 149.088,92.000 149.500 C 92.000 150.000,92.125 150.250,92.375 150.250 C 92.581 150.250,92.750 150.419,92.750 150.625 C 92.750 150.831,92.631 151.000,92.485 151.000 C 92.340 151.000,92.290 150.887,92.375 150.750 C 92.460 150.613,92.410 150.500,92.265 150.500 C 91.873 150.500,91.944 151.142,92.375 151.500 C 92.581 151.671,92.750 151.952,92.750 152.125 C 92.750 152.298,92.929 152.587,93.148 152.769 C 93.509 153.069,93.505 153.128,93.100 153.424 C 92.855 153.603,92.788 153.750,92.952 153.750 C 93.116 153.750,93.250 153.979,93.250 154.258 C 93.250 154.537,93.419 154.830,93.625 154.910 C 93.870 155.004,94.000 155.393,94.000 156.035 C 94.000 156.713,94.126 157.064,94.410 157.173 C 94.781 157.315,94.776 157.363,94.362 157.665 C 94.110 157.849,94.038 158.000,94.202 158.000 C 94.366 158.000,94.500 158.278,94.500 158.617 C 94.500 159.063,94.604 159.194,94.875 159.090 C 95.081 159.011,95.250 159.071,95.250 159.223 C 95.250 159.375,95.053 159.509,94.813 159.520 C 94.551 159.532,94.501 159.590,94.688 159.666 C 94.859 159.735,95.000 160.180,95.000 160.654 C 95.000 161.189,95.142 161.570,95.375 161.660 C 95.606 161.748,95.750 162.128,95.750 162.652 C 95.750 163.118,95.862 163.500,96.000 163.500 C 96.138 163.500,96.250 163.773,96.250 164.107 C 96.250 164.441,96.419 164.883,96.625 165.089 C 96.831 165.296,97.000 165.697,97.000 165.982 C 97.000 166.267,97.112 166.500,97.250 166.500 C 97.388 166.500,97.500 166.773,97.500 167.107 C 97.500 167.441,97.669 167.883,97.875 168.089 C 98.081 168.296,98.250 168.691,98.250 168.967 C 98.250 169.244,98.363 169.540,98.500 169.625 C 98.638 169.710,98.750 169.998,98.750 170.265 C 98.750 170.532,98.919 170.750,99.125 170.750 C 99.331 170.750,99.500 170.863,99.500 171.000 C 99.500 171.137,99.649 171.250,99.832 171.250 C 100.058 171.250,100.128 171.489,100.053 172.003 C 99.969 172.575,100.027 172.724,100.292 172.622 C 100.519 172.535,100.657 172.675,100.683 173.019 C 100.705 173.311,100.926 173.704,101.174 173.892 C 101.604 174.218,101.602 174.235,101.125 174.262 C 100.850 174.277,100.766 174.346,100.938 174.416 C 101.109 174.485,101.259 174.785,101.270 175.083 C 101.281 175.381,101.346 175.484,101.416 175.313 C 101.683 174.650,102.000 175.046,102.000 176.042 C 102.000 176.615,102.066 177.018,102.146 176.938 C 102.294 176.789,103.250 177.624,103.250 177.902 C 103.250 177.985,103.081 177.989,102.875 177.910 C 102.669 177.830,102.500 177.875,102.500 178.008 C 102.500 178.141,102.612 178.250,102.750 178.250 C 102.888 178.250,103.000 178.469,103.000 178.738 C 103.000 179.006,103.163 179.316,103.362 179.428 C 103.561 179.539,103.894 180.023,104.102 180.503 C 104.323 181.012,104.485 181.187,104.490 180.923 C 104.508 180.081,105.000 180.773,105.000 181.640 C 105.000 182.113,105.112 182.500,105.250 182.500 C 105.388 182.500,105.500 182.669,105.500 182.875 C 105.500 183.081,105.669 183.250,105.875 183.250 C 106.088 183.250,106.250 183.474,106.250 183.768 C 106.250 184.053,106.391 184.443,106.562 184.634 C 107.304 185.461,107.500 185.744,107.500 185.989 C 107.500 186.133,107.612 186.250,107.750 186.250 C 107.888 186.250,108.000 186.407,108.000 186.598 C 108.000 186.790,108.169 187.011,108.375 187.090 C 108.581 187.170,108.750 187.407,108.750 187.617 C 108.750 187.828,108.862 188.000,109.000 188.000 C 109.138 188.000,109.250 188.169,109.250 188.375 C 109.250 188.581,109.419 188.750,109.625 188.750 C 109.849 188.750,110.000 188.980,110.000 189.320 C 110.000 189.633,110.225 190.052,110.500 190.250 C 110.775 190.448,111.000 190.754,111.000 190.930 C 111.000 191.106,111.169 191.250,111.375 191.250 C 111.581 191.250,111.754 191.447,111.758 191.688 C 111.768 192.248,112.244 192.857,112.848 193.084 C 113.109 193.182,113.256 193.327,113.176 193.408 C 113.095 193.488,113.304 193.850,113.640 194.212 C 113.975 194.574,114.250 194.963,114.250 195.078 C 114.250 195.192,114.419 195.454,114.625 195.661 C 114.831 195.867,115.000 195.915,115.000 195.768 C 115.000 195.621,115.119 195.500,115.265 195.500 C 115.410 195.500,115.460 195.613,115.375 195.750 C 115.290 195.887,115.459 196.000,115.750 196.000 C 116.041 196.000,116.217 196.101,116.141 196.224 C 116.065 196.347,116.199 196.528,116.439 196.626 C 116.838 196.789,116.833 196.821,116.375 197.009 L 115.875 197.215 116.375 197.262 C 116.650 197.288,116.978 197.290,117.105 197.265 C 117.231 197.241,117.189 197.397,117.012 197.611 C 116.816 197.846,116.793 198.000,116.953 198.000 C 117.098 198.000,117.279 198.198,117.356 198.440 C 117.433 198.682,117.750 198.995,118.060 199.136 C 118.371 199.278,118.592 199.544,118.552 199.728 C 118.512 199.912,118.670 200.273,118.903 200.531 C 119.380 201.058,119.874 201.168,119.603 200.688 C 119.471 200.453,119.513 200.455,119.773 200.697 C 119.963 200.874,120.121 201.212,120.122 201.447 C 120.124 201.682,120.318 201.876,120.553 201.878 C 120.788 201.879,121.126 202.037,121.303 202.227 C 121.545 202.487,121.547 202.529,121.313 202.397 C 120.564 201.974,121.118 202.742,122.571 204.141 C 124.459 205.959,124.750 206.159,124.750 205.640 C 124.750 205.425,124.602 205.250,124.422 205.250 C 123.704 205.250,122.684 203.840,122.989 203.270 C 123.145 202.978,123.197 202.617,123.105 202.467 C 123.012 202.317,123.035 202.122,123.155 202.035 C 123.276 201.947,123.595 201.481,123.863 201.000 C 124.132 200.519,124.658 199.787,125.032 199.375 C 125.406 198.963,125.931 198.372,126.198 198.063 C 126.465 197.753,126.799 197.500,126.940 197.500 C 127.081 197.500,127.261 197.332,127.339 197.128 C 127.512 196.678,130.077 195.000,130.592 195.000 C 130.794 195.000,130.996 194.916,131.042 194.813 C 131.144 194.582,133.538 193.750,134.099 193.750 C 134.323 193.750,134.702 193.647,134.941 193.522 C 135.818 193.062,137.658 192.544,138.875 192.416 C 140.007 192.297,141.811 191.789,145.750 190.481 C 148.903 189.434,148.467 189.558,152.750 188.481 C 153.919 188.187,155.325 187.853,155.875 187.739 C 156.425 187.625,157.606 187.349,158.500 187.125 C 159.394 186.901,160.575 186.619,161.125 186.498 C 163.328 186.012,164.168 185.812,165.125 185.545 C 165.675 185.392,166.912 185.086,167.875 184.866 C 169.526 184.488,170.732 184.154,171.875 183.757 C 172.992 183.369,176.993 181.362,176.996 181.188 C 176.998 181.084,177.148 181.000,177.328 181.000 C 178.677 181.000,182.750 175.831,182.750 174.120 L 182.750 173.504 167.438 173.439 L 152.125 173.375 152.125 125.250 L 152.125 77.125 199.849 77.062 C 234.915 77.015,247.662 77.073,247.911 77.280 C 248.383 77.671,248.421 172.729,247.950 173.200 C 247.723 173.427,243.848 173.500,232.041 173.500 L 216.432 173.500 216.586 174.622 C 216.963 177.377,220.070 180.390,224.955 182.740 C 225.824 183.158,226.641 183.500,226.771 183.500 C 226.901 183.500,227.202 183.603,227.441 183.729 C 228.011 184.030,230.931 184.830,234.375 185.630 C 235.338 185.853,236.519 186.135,237.000 186.256 C 237.481 186.378,239.113 186.767,240.625 187.122 C 242.137 187.477,243.769 187.877,244.250 188.010 C 245.226 188.281,246.863 188.676,248.375 189.005 C 250.755 189.523,253.141 190.241,255.875 191.263 C 256.860 191.631,259.137 192.246,259.750 192.310 L 260.375 192.375 260.526 168.750 C 260.610 155.756,260.767 143.972,260.877 142.563 C 261.026 140.638,261.002 140.000,260.778 140.000 C 260.442 140.000,260.521 132.858,260.949 124.654 C 261.097 121.821,261.106 119.621,260.971 119.154 C 260.847 118.726,260.681 115.281,260.603 111.500 C 260.525 107.719,260.362 104.400,260.241 104.125 C 260.120 103.850,259.973 102.950,259.915 102.125 C 259.799 100.470,259.315 98.278,258.971 97.850 C 258.850 97.698,258.679 97.048,258.590 96.405 C 258.502 95.762,258.333 95.177,258.215 95.103 C 258.097 95.030,258.000 94.638,258.000 94.232 C 258.000 93.826,257.899 93.298,257.776 93.059 C 257.453 92.433,255.743 86.938,255.747 86.539 C 255.749 86.354,255.595 85.904,255.405 85.539 C 254.938 84.639,254.563 83.739,254.374 83.063 C 254.287 82.753,254.111 82.500,253.983 82.500 C 253.855 82.500,253.750 82.369,253.750 82.209 C 253.750 81.742,252.923 80.000,252.702 80.000 C 252.591 80.000,252.500 79.830,252.500 79.622 C 252.500 79.140,252.054 78.382,251.218 77.443 C 250.856 77.037,250.408 76.405,250.222 76.040 C 249.616 74.848,247.179 71.359,246.021 70.024 C 245.735 69.694,245.500 69.354,245.500 69.270 C 245.500 69.185,245.022 68.612,244.438 67.996 C 243.853 67.379,243.211 66.557,243.010 66.167 C 242.809 65.778,241.627 64.515,240.385 63.361 C 239.142 62.206,237.711 60.865,237.206 60.381 C 236.700 59.896,236.214 59.500,236.126 59.500 C 236.037 59.500,235.807 59.359,235.616 59.187 C 234.866 58.515,234.515 58.250,234.375 58.250 C 234.295 58.250,233.982 58.020,233.680 57.739 C 233.043 57.145,231.823 56.500,231.337 56.500 C 231.151 56.500,231.000 56.401,231.000 56.279 C 231.000 56.158,230.803 55.995,230.563 55.917 C 230.322 55.840,229.563 55.435,228.875 55.017 C 228.188 54.599,227.456 54.185,227.250 54.097 C 227.044 54.009,225.730 53.389,224.330 52.719 C 222.930 52.048,221.663 51.500,221.514 51.500 C 221.365 51.500,221.048 51.389,220.809 51.254 C 220.375 51.008,217.790 50.119,216.375 49.729 C 213.203 48.855,212.465 48.673,211.250 48.465 C 209.400 48.149,207.448 47.886,203.938 47.481 C 200.813 47.120,200.011 46.488,201.500 45.558 C 201.970 45.264,202.000 44.975,202.000 40.725 C 202.000 36.582,201.958 36.151,201.500 35.568 C 201.038 34.981,201.000 34.554,201.000 29.968 C 201.000 25.275,201.027 24.987,201.500 24.692 C 202.075 24.333,202.302 15.000,201.735 15.000 C 201.590 15.000,201.540 14.887,201.625 14.750 C 201.726 14.587,200.383 14.500,197.780 14.500 C 195.383 14.500,193.718 14.600,193.625 14.750 M202.000 14.725 C 202.000 14.849,202.366 14.947,202.813 14.943 C 203.259 14.939,203.934 14.999,204.313 15.076 C 204.691 15.154,205.000 15.108,205.000 14.975 C 205.000 14.829,205.204 14.842,205.513 15.007 C 205.795 15.158,206.217 15.231,206.451 15.170 C 206.762 15.088,206.730 15.050,206.327 15.029 C 206.026 15.013,205.710 14.887,205.625 14.750 C 205.433 14.439,202.000 14.416,202.000 14.725 M208.942 15.181 C 209.391 15.237,210.066 15.236,210.442 15.179 C 210.818 15.122,210.450 15.076,209.625 15.077 C 208.800 15.079,208.493 15.126,208.942 15.181 M216.488 16.110 C 216.652 16.308,216.946 16.409,217.142 16.334 C 217.631 16.146,217.334 15.750,216.705 15.750 C 216.284 15.750,216.244 15.816,216.488 16.110 M218.568 16.425 C 219.087 16.483,219.444 16.639,219.362 16.772 C 219.167 17.087,219.820 16.950,220.059 16.625 C 220.172 16.470,220.244 16.494,220.246 16.688 C 220.248 16.859,220.419 17.000,220.625 17.000 C 221.144 17.000,221.097 16.559,220.563 16.419 C 220.322 16.357,219.563 16.308,218.875 16.312 C 217.839 16.318,217.786 16.337,218.568 16.425 M222.868 17.239 C 222.950 17.371,223.200 17.408,223.424 17.322 C 223.719 17.209,223.775 17.257,223.627 17.496 C 223.490 17.718,223.519 17.768,223.715 17.646 C 224.123 17.394,223.822 17.000,223.220 17.000 C 222.945 17.000,222.787 17.108,222.868 17.239 M224.284 17.617 C 224.348 17.682,224.761 17.762,225.201 17.795 C 225.640 17.829,226.000 17.926,226.000 18.012 C 226.000 18.097,226.169 18.167,226.375 18.167 C 226.947 18.167,226.822 17.828,226.188 17.658 C 225.521 17.479,224.116 17.449,224.284 17.617 M230.063 18.922 C 230.303 18.985,230.500 19.141,230.500 19.268 C 230.500 19.396,230.613 19.500,230.750 19.500 C 230.887 19.500,231.000 19.331,231.000 19.125 C 231.000 18.876,230.770 18.760,230.313 18.779 C 229.890 18.797,229.793 18.852,230.063 18.922 M232.583 19.875 C 232.583 20.081,232.730 20.250,232.909 20.250 C 233.095 20.250,233.173 20.090,233.090 19.875 C 233.011 19.669,232.865 19.500,232.765 19.500 C 232.665 19.500,232.583 19.669,232.583 19.875 M234.091 20.377 C 235.011 20.856,235.399 20.856,235.000 20.375 C 234.829 20.169,234.393 20.001,234.032 20.002 L 233.375 20.003 234.091 20.377 M237.521 21.321 C 237.578 21.360,237.822 21.542,238.063 21.726 C 238.437 22.013,238.500 22.003,238.500 21.656 C 238.500 21.406,238.291 21.250,237.958 21.250 C 237.660 21.250,237.464 21.282,237.521 21.321 M239.500 22.223 C 239.500 22.483,240.744 22.839,240.946 22.637 C 241.022 22.562,240.896 22.500,240.667 22.500 C 240.438 22.500,240.250 22.387,240.250 22.250 C 240.250 22.113,240.081 22.000,239.875 22.000 C 239.669 22.000,239.500 22.100,239.500 22.223 M264.354 35.627 C 264.893 36.107,265.384 36.449,265.446 36.387 C 265.605 36.228,264.843 35.500,264.518 35.500 C 264.371 35.500,264.250 35.400,264.250 35.277 C 264.250 35.154,264.053 34.986,263.813 34.903 C 263.572 34.821,263.816 35.146,264.354 35.627 M266.547 37.233 C 266.887 37.777,267.500 38.123,267.500 37.771 C 267.500 37.654,267.214 37.370,266.865 37.142 C 266.247 36.736,266.239 36.739,266.547 37.233 M268.625 39.124 C 269.038 39.459,269.741 40.029,270.188 40.391 C 270.634 40.753,271.000 40.918,271.000 40.757 C 271.000 40.391,270.375 39.750,270.018 39.750 C 269.871 39.750,269.750 39.631,269.750 39.485 C 269.750 39.340,269.642 39.287,269.509 39.369 C 269.377 39.451,269.039 39.289,268.759 39.009 C 268.479 38.729,268.166 38.504,268.063 38.508 C 267.959 38.512,268.212 38.790,268.625 39.124 M273.065 42.708 C 273.444 42.958,273.678 43.239,273.585 43.331 C 273.493 43.424,273.548 43.500,273.708 43.500 C 273.869 43.500,274.000 43.688,274.000 43.917 C 274.000 44.146,274.074 44.259,274.165 44.168 C 274.256 44.077,274.706 44.289,275.165 44.639 C 275.624 44.989,276.000 45.205,276.000 45.118 C 276.000 44.906,274.582 43.500,274.368 43.500 C 274.274 43.500,273.976 43.219,273.705 42.875 C 273.435 42.531,273.025 42.251,272.794 42.252 C 272.500 42.253,272.580 42.389,273.065 42.708 M284.835 54.871 C 285.039 55.074,285.256 55.384,285.318 55.558 C 285.384 55.742,285.524 55.782,285.653 55.653 C 285.782 55.524,285.744 55.385,285.563 55.320 C 285.391 55.259,285.250 55.049,285.250 54.854 C 285.250 54.659,285.073 54.500,284.857 54.500 C 284.510 54.500,284.507 54.543,284.835 54.871 M286.000 56.624 C 286.000 56.693,286.394 57.166,286.875 57.677 C 287.356 58.187,287.750 58.693,287.750 58.802 C 287.750 58.911,287.863 59.000,288.002 59.000 C 288.332 59.000,287.817 58.129,286.946 57.213 C 286.301 56.536,286.000 56.348,286.000 56.624 M288.828 59.992 C 288.879 60.325,289.051 60.642,289.210 60.695 C 289.605 60.827,289.562 60.477,289.110 59.880 C 288.746 59.399,288.738 59.402,288.828 59.992 M289.688 61.416 C 289.859 61.485,290.000 61.689,290.000 61.869 C 290.000 62.049,290.169 62.261,290.375 62.340 C 290.581 62.420,290.750 62.433,290.750 62.370 C 290.750 62.116,289.871 61.251,289.632 61.270 C 289.491 61.281,289.516 61.346,289.688 61.416 M290.500 63.000 C 290.500 63.138,290.657 63.250,290.848 63.250 C 291.139 63.250,291.588 63.867,291.442 64.065 C 291.361 64.175,292.347 65.237,292.441 65.142 C 292.553 65.030,292.000 64.030,291.563 63.554 C 291.391 63.367,291.250 63.110,291.250 62.982 C 291.250 62.854,291.081 62.750,290.875 62.750 C 290.669 62.750,290.500 62.862,290.500 63.000 M298.938 76.916 C 299.109 76.985,299.250 77.236,299.250 77.473 C 299.250 78.098,299.981 79.048,299.992 78.438 C 299.996 78.197,299.887 78.000,299.750 78.000 C 299.613 78.000,299.500 77.719,299.500 77.375 C 299.500 76.939,299.368 76.756,299.063 76.770 C 298.801 76.782,298.751 76.840,298.938 76.916 M154.812 80.206 C 154.562 80.365,154.512 89.567,154.562 125.390 L 154.625 170.375 168.688 170.440 L 182.750 170.504 182.750 166.056 L 182.750 161.608 181.938 161.135 C 181.491 160.875,181.069 160.591,181.000 160.502 C 180.931 160.414,180.369 159.991,179.750 159.562 C 179.131 159.134,178.326 158.522,177.960 158.204 C 177.594 157.886,176.859 157.269,176.325 156.833 C 174.961 155.718,172.303 153.040,171.529 152.000 C 171.171 151.519,170.807 151.069,170.721 151.000 C 170.371 150.720,168.500 147.466,168.500 147.135 C 168.500 146.940,168.387 146.710,168.250 146.625 C 168.113 146.540,168.000 146.297,168.000 146.086 C 168.000 145.874,167.841 145.346,167.646 144.913 C 167.289 144.118,167.130 143.410,166.794 141.125 C 166.693 140.438,166.511 139.716,166.389 139.521 C 166.163 139.157,165.877 137.161,165.543 133.622 C 165.439 132.521,165.270 131.485,165.168 131.319 C 164.953 130.972,164.556 126.811,164.291 122.125 C 164.190 120.338,164.024 118.741,163.923 118.578 C 163.681 118.185,163.179 109.079,163.149 104.511 L 163.125 100.896 164.000 100.700 C 164.789 100.524,166.616 100.363,174.625 99.763 C 177.374 99.557,182.557 99.106,186.250 98.752 C 187.556 98.627,190.082 98.399,191.862 98.247 C 193.642 98.094,195.236 97.892,195.404 97.797 C 196.537 97.157,200.481 92.891,202.000 90.662 C 202.619 89.755,203.252 89.009,203.407 89.006 C 204.161 88.990,204.235 92.953,203.512 94.625 C 203.393 94.900,203.239 95.294,203.170 95.500 C 203.102 95.706,202.865 96.297,202.644 96.813 L 202.243 97.750 205.934 97.749 L 209.625 97.747 210.835 95.985 C 212.405 93.698,212.828 93.723,213.000 96.111 C 213.147 98.147,213.040 98.086,217.125 98.491 C 218.500 98.627,220.750 98.850,222.125 98.985 C 223.500 99.121,224.899 99.299,225.234 99.382 C 225.836 99.531,228.503 99.825,232.875 100.225 C 236.384 100.546,236.075 99.902,235.876 106.473 C 235.782 109.582,235.605 112.856,235.482 113.750 C 235.360 114.644,235.254 116.275,235.247 117.375 C 235.240 118.475,235.123 120.219,234.986 121.250 C 234.849 122.281,234.618 124.419,234.472 126.000 C 234.016 130.962,233.804 132.803,233.408 135.250 C 232.720 139.495,232.517 140.599,232.116 142.250 C 231.899 143.144,231.663 144.156,231.592 144.500 C 231.055 147.092,228.661 150.991,225.833 153.878 C 223.702 156.054,219.164 159.941,218.430 160.220 C 218.292 160.272,217.999 160.467,217.777 160.653 C 217.556 160.839,217.150 161.152,216.875 161.350 C 216.408 161.685,216.375 161.995,216.375 166.042 L 216.375 170.375 230.938 170.440 L 245.501 170.504 245.438 125.315 L 245.375 80.125 200.250 80.066 C 175.431 80.033,154.984 80.097,154.812 80.206 M300.500 80.719 C 300.500 80.840,300.669 81.079,300.875 81.250 C 301.282 81.588,301.333 81.507,301.098 80.895 C 300.938 80.477,300.500 80.348,300.500 80.719 M301.750 83.827 C 301.750 84.030,301.927 84.264,302.143 84.347 C 302.417 84.453,302.512 84.372,302.456 84.082 C 302.353 83.553,301.750 83.335,301.750 83.827 M172.451 87.563 L 172.375 88.875 167.500 89.000 L 162.625 89.125 162.557 94.075 L 162.489 99.026 161.182 98.950 L 159.875 98.875 159.808 92.880 C 159.771 89.583,159.795 86.742,159.862 86.567 C 159.956 86.323,161.417 86.250,166.255 86.250 L 172.526 86.250 172.451 87.563 M239.250 92.625 L 239.250 99.000 237.875 99.000 L 236.500 99.000 236.496 94.313 C 236.494 91.734,236.405 89.487,236.297 89.318 C 236.157 89.098,234.772 88.992,231.364 88.943 L 226.625 88.875 226.549 87.563 L 226.474 86.250 232.862 86.250 L 239.250 86.250 239.250 92.625 M306.758 99.205 C 306.754 99.387,306.919 99.704,307.125 99.911 C 307.607 100.393,307.613 99.995,307.133 99.360 C 306.903 99.056,306.763 98.998,306.758 99.205 M309.020 139.827 C 309.009 140.076,308.906 140.222,308.792 140.151 C 308.677 140.080,308.583 140.191,308.583 140.398 C 308.583 140.726,308.629 140.728,308.946 140.411 C 309.145 140.212,309.248 139.897,309.174 139.712 C 309.084 139.487,309.033 139.525,309.020 139.827 M308.164 143.592 C 308.060 143.986,308.035 144.368,308.107 144.440 C 308.308 144.642,308.554 143.836,308.447 143.327 C 308.377 142.994,308.303 143.063,308.164 143.592 M307.563 147.180 C 307.391 147.241,307.265 147.648,307.284 148.083 C 307.314 148.770,307.334 148.792,307.434 148.250 C 307.498 147.906,307.676 147.547,307.830 147.451 C 308.182 147.233,307.982 147.030,307.563 147.180 M307.184 149.149 C 307.102 149.232,307.095 149.457,307.169 149.649 C 307.243 149.842,307.179 150.000,307.027 150.000 C 306.875 150.000,306.750 150.113,306.750 150.250 C 306.750 150.769,307.247 150.473,307.400 149.863 C 307.562 149.219,307.458 148.876,307.184 149.149 M162.500 157.598 C 162.500 163.368,161.851 162.750,167.909 162.750 L 172.526 162.750 172.451 164.063 L 172.375 165.375 166.268 165.442 C 161.548 165.494,160.114 165.437,159.959 165.192 C 159.718 164.812,159.678 153.156,159.917 152.917 C 160.008 152.825,160.627 152.750,161.292 152.750 L 162.500 152.750 162.500 157.598 M239.192 159.063 L 239.125 165.375 232.813 165.442 L 226.500 165.509 226.500 164.129 L 226.500 162.750 231.200 162.750 C 237.029 162.750,236.500 163.279,236.500 157.450 L 236.500 152.750 237.879 152.750 L 239.259 152.750 239.192 159.063 M293.145 182.912 C 292.933 183.465,293.111 183.594,293.477 183.153 C 293.654 182.939,293.679 182.736,293.538 182.649 C 293.409 182.568,293.232 182.687,293.145 182.912 M291.154 185.938 C 291.069 186.178,290.925 186.544,290.834 186.750 C 290.692 187.072,290.727 187.077,291.084 186.782 C 291.313 186.593,291.500 186.293,291.500 186.115 C 291.500 185.937,291.641 185.735,291.813 185.666 C 292.011 185.586,291.976 185.532,291.717 185.520 C 291.492 185.509,291.239 185.697,291.154 185.938 M289.993 187.706 C 289.440 188.392,288.975 189.250,289.156 189.250 C 289.422 189.250,290.250 188.196,290.250 187.858 C 290.250 187.684,290.391 187.485,290.563 187.416 C 290.734 187.346,290.759 187.281,290.618 187.270 C 290.477 187.259,290.195 187.455,289.993 187.706 M288.364 189.733 C 288.443 189.861,288.394 190.036,288.254 190.122 C 288.114 190.209,288.000 190.403,288.000 190.554 C 288.000 190.704,288.225 190.624,288.500 190.375 C 289.100 189.832,289.141 189.500,288.610 189.500 C 288.396 189.500,288.285 189.605,288.364 189.733 M287.390 191.333 C 287.058 191.576,287.031 191.667,287.290 191.667 C 287.487 191.667,287.787 191.517,287.958 191.333 C 288.130 191.150,288.174 191.000,288.058 191.000 C 287.941 191.000,287.640 191.150,287.390 191.333 M112.692 192.250 C 112.864 192.525,112.918 192.750,112.812 192.750 C 112.707 192.750,112.480 192.525,112.308 192.250 C 112.136 191.975,112.082 191.750,112.188 191.750 C 112.293 191.750,112.520 191.975,112.692 192.250 M283.500 196.232 C 283.500 196.360,283.323 196.641,283.107 196.857 C 282.891 197.073,282.810 197.250,282.927 197.250 C 283.141 197.250,284.000 196.348,284.000 196.122 C 284.000 196.055,283.887 196.000,283.750 196.000 C 283.613 196.000,283.500 196.104,283.500 196.232 M128.250 209.221 C 128.250 209.447,129.345 210.250,129.653 210.250 C 129.746 210.250,129.520 209.969,129.149 209.625 C 128.423 208.953,128.250 208.875,128.250 209.221 M131.500 211.834 C 131.500 212.031,131.748 212.257,132.052 212.336 C 132.798 212.531,132.807 212.454,132.101 211.926 C 131.623 211.568,131.500 211.550,131.500 211.834 M157.000 226.625 C 157.171 226.831,157.494 226.987,157.718 226.971 C 158.061 226.947,158.057 226.924,157.688 226.828 C 157.447 226.765,157.250 226.609,157.250 226.482 C 157.250 226.354,157.124 226.250,156.969 226.250 C 156.776 226.250,156.785 226.366,157.000 226.625 " stroke="none" fill="#103456" fill-rule="evenodd"></path><path id="path1" d="M202.000 90.662 C 200.481 92.891,196.537 97.157,195.404 97.797 C 195.236 97.892,193.642 98.094,191.862 98.247 C 190.082 98.399,187.556 98.627,186.250 98.752 C 182.557 99.106,177.374 99.557,174.625 99.763 C 166.616 100.363,164.789 100.524,164.000 100.700 L 163.125 100.896 163.149 104.511 C 163.179 109.079,163.681 118.185,163.923 118.578 C 164.024 118.741,164.190 120.338,164.291 122.125 C 164.556 126.811,164.953 130.972,165.168 131.319 C 165.270 131.485,165.439 132.521,165.543 133.622 C 165.877 137.161,166.163 139.157,166.389 139.521 C 166.511 139.716,166.693 140.438,166.794 141.125 C 167.130 143.410,167.289 144.118,167.646 144.913 C 167.841 145.346,168.000 145.874,168.000 146.086 C 168.000 146.297,168.113 146.540,168.250 146.625 C 168.387 146.710,168.500 146.940,168.500 147.135 C 168.500 147.466,170.371 150.720,170.721 151.000 C 170.807 151.069,171.171 151.519,171.529 152.000 C 172.303 153.040,174.961 155.718,176.325 156.833 C 176.859 157.269,177.594 157.886,177.960 158.204 C 178.326 158.522,179.131 159.134,179.750 159.562 C 180.369 159.991,180.931 160.414,181.000 160.502 C 181.069 160.591,181.491 160.875,181.938 161.135 L 182.750 161.608 182.750 166.054 C 182.750 169.444,182.824 170.500,183.063 170.500 C 183.372 170.501,183.311 161.678,183.000 161.448 C 181.481 160.320,180.991 160.000,180.788 160.000 C 180.652 160.000,180.504 159.909,180.458 159.797 C 180.412 159.685,179.700 159.099,178.875 158.494 C 175.105 155.728,168.750 148.458,168.750 146.910 C 168.750 146.730,168.668 146.501,168.567 146.400 C 168.153 145.986,167.416 143.160,167.018 140.462 C 166.904 139.686,166.734 138.926,166.640 138.774 C 166.451 138.469,166.103 136.062,165.754 132.652 C 165.628 131.429,165.454 130.247,165.366 130.027 C 165.198 129.606,164.873 126.198,164.517 121.125 C 163.337 104.322,163.172 101.495,163.355 101.311 C 163.558 101.109,165.963 100.837,170.375 100.518 C 172.162 100.388,174.075 100.218,174.625 100.138 C 175.709 99.982,180.804 99.544,185.000 99.247 C 193.177 98.668,195.151 98.455,195.707 98.093 C 196.852 97.345,200.471 93.444,201.958 91.354 L 203.473 89.225 203.642 90.126 C 203.952 91.781,203.480 94.098,202.343 96.497 C 201.521 98.232,201.556 98.250,205.779 98.250 C 209.267 98.250,209.533 98.216,209.940 97.722 C 210.179 97.432,210.492 97.066,210.634 96.910 C 210.777 96.753,211.155 96.198,211.474 95.676 C 212.260 94.393,212.610 94.611,212.699 96.436 C 212.799 98.506,212.839 98.520,220.000 99.151 C 220.619 99.206,222.025 99.360,223.125 99.495 C 224.225 99.629,226.700 99.917,228.625 100.133 C 233.276 100.655,235.472 101.003,235.619 101.240 C 235.805 101.541,235.071 115.813,234.535 122.305 C 234.219 126.136,233.496 132.154,232.859 136.250 C 231.944 142.135,231.078 145.566,229.955 147.756 C 228.198 151.181,223.945 155.767,219.642 158.875 C 219.262 159.150,218.571 159.656,218.109 160.000 C 217.646 160.344,216.987 160.823,216.644 161.066 C 215.973 161.541,215.480 170.501,216.125 170.500 C 216.282 170.500,216.375 168.868,216.375 166.104 C 216.375 161.996,216.408 161.686,216.875 161.350 C 217.150 161.152,217.556 160.839,217.777 160.653 C 217.999 160.467,218.292 160.272,218.430 160.220 C 219.164 159.941,223.702 156.054,225.833 153.878 C 228.661 150.991,231.055 147.092,231.592 144.500 C 231.663 144.156,231.899 143.144,232.116 142.250 C 233.060 138.361,233.813 133.171,234.472 126.000 C 234.618 124.419,234.849 122.281,234.986 121.250 C 235.123 120.219,235.240 118.475,235.247 117.375 C 235.254 116.275,235.360 114.644,235.482 113.750 C 235.605 112.856,235.782 109.582,235.876 106.473 C 236.075 99.902,236.384 100.546,232.875 100.225 C 228.503 99.825,225.836 99.531,225.234 99.382 C 224.899 99.299,223.500 99.121,222.125 98.985 C 212.183 98.006,213.159 98.313,213.000 96.111 C 212.828 93.723,212.405 93.698,210.835 95.985 L 209.625 97.747 205.934 97.749 L 202.243 97.750 202.644 96.813 C 202.865 96.297,203.102 95.706,203.170 95.500 C 203.239 95.294,203.393 94.900,203.512 94.625 C 204.235 92.953,204.161 88.990,203.407 89.006 C 203.252 89.009,202.619 89.755,202.000 90.662 M182.750 174.118 C 182.750 175.831,178.678 181.000,177.328 181.000 C 177.148 181.000,176.998 181.084,176.996 181.188 C 176.993 181.362,172.992 183.369,171.875 183.757 C 170.732 184.154,169.526 184.488,167.875 184.866 C 166.912 185.086,165.675 185.392,165.125 185.545 C 164.168 185.812,163.328 186.012,161.125 186.498 C 160.575 186.619,159.394 186.901,158.500 187.125 C 157.606 187.349,156.425 187.625,155.875 187.739 C 155.325 187.853,153.919 188.187,152.750 188.481 C 148.463 189.559,148.866 189.444,145.750 190.482 C 142.710 191.495,140.058 192.266,138.838 192.490 C 137.459 192.744,133.657 193.892,132.941 194.271 C 132.702 194.397,132.347 194.500,132.151 194.500 C 131.726 194.500,129.263 195.736,128.795 196.184 C 128.613 196.358,128.386 196.500,128.291 196.500 C 127.458 196.500,123.752 201.001,123.157 202.735 L 122.776 203.845 123.511 204.548 C 123.915 204.934,124.359 205.250,124.498 205.250 C 124.636 205.250,124.750 205.371,124.750 205.518 C 124.750 205.864,125.386 206.500,125.732 206.500 C 125.879 206.500,126.000 206.621,126.000 206.768 C 126.000 207.056,126.614 207.750,126.869 207.750 C 126.954 207.750,127.285 208.031,127.603 208.375 C 127.922 208.719,128.285 209.000,128.411 209.000 C 128.536 209.000,128.817 209.197,129.034 209.438 C 129.529 209.986,130.341 210.667,131.625 211.608 C 132.175 212.012,132.747 212.464,132.897 212.613 C 133.047 212.762,133.806 213.322,134.585 213.858 C 135.363 214.394,136.000 214.927,136.000 215.042 C 136.000 215.156,136.174 215.250,136.386 215.250 C 136.598 215.250,137.075 215.531,137.446 215.875 C 137.817 216.219,138.262 216.500,138.435 216.500 C 138.608 216.500,138.750 216.613,138.750 216.750 C 138.750 216.887,138.919 217.000,139.125 217.000 C 139.331 217.000,139.500 217.110,139.500 217.245 C 139.500 217.380,139.781 217.561,140.125 217.647 C 140.469 217.734,140.750 217.905,140.750 218.027 C 140.750 218.150,140.919 218.250,141.125 218.250 C 141.331 218.250,141.501 218.334,141.502 218.438 C 141.504 218.689,142.949 219.500,143.395 219.500 C 143.590 219.500,143.750 219.613,143.750 219.751 C 143.750 219.889,144.200 220.196,144.750 220.435 C 145.300 220.673,145.750 220.954,145.750 221.059 C 145.750 221.164,145.963 221.250,146.223 221.250 C 146.484 221.250,146.761 221.419,146.840 221.625 C 146.920 221.831,147.206 222.000,147.477 222.000 C 147.749 222.000,148.040 222.113,148.125 222.250 C 148.210 222.387,148.498 222.500,148.765 222.500 C 149.032 222.500,149.250 222.669,149.250 222.875 C 149.250 223.108,149.486 223.250,149.875 223.250 C 150.219 223.250,150.500 223.363,150.500 223.500 C 150.500 223.637,150.769 223.750,151.098 223.750 C 151.427 223.750,151.761 223.919,151.840 224.125 C 151.920 224.331,152.158 224.500,152.371 224.500 C 152.723 224.500,153.239 224.717,154.250 225.290 C 154.456 225.407,154.794 225.567,155.000 225.645 C 155.206 225.723,155.570 225.891,155.809 226.018 C 156.048 226.146,156.470 226.250,156.747 226.250 C 157.023 226.250,157.250 226.354,157.250 226.480 C 157.250 226.607,157.586 226.784,157.997 226.874 C 158.408 226.965,158.808 227.142,158.887 227.269 C 158.965 227.396,159.312 227.500,159.658 227.500 C 160.003 227.500,160.454 227.669,160.661 227.875 C 160.867 228.081,161.253 228.250,161.518 228.250 C 161.783 228.250,162.000 228.363,162.000 228.500 C 162.000 228.637,162.331 228.750,162.735 228.750 C 163.140 228.750,163.540 228.863,163.625 229.000 C 163.710 229.137,164.118 229.250,164.533 229.250 C 164.947 229.250,165.454 229.419,165.661 229.625 C 165.867 229.831,166.421 230.000,166.893 230.000 C 167.364 230.000,167.750 230.113,167.750 230.250 C 167.750 230.387,168.096 230.500,168.518 230.500 C 168.940 230.500,169.454 230.669,169.661 230.875 C 169.867 231.081,170.478 231.250,171.018 231.250 C 171.558 231.250,172.000 231.363,172.000 231.500 C 172.000 231.637,172.514 231.750,173.143 231.750 C 173.825 231.750,174.437 231.901,174.661 232.125 C 174.891 232.356,175.504 232.500,176.253 232.500 C 176.923 232.500,177.540 232.613,177.625 232.750 C 177.710 232.887,178.400 233.000,179.158 233.000 C 180.049 233.000,180.668 233.132,180.911 233.375 C 181.177 233.641,181.825 233.750,183.143 233.750 C 184.214 233.750,185.000 233.856,185.000 234.000 C 185.000 234.151,186.048 234.250,187.643 234.250 C 189.659 234.250,190.375 234.339,190.661 234.625 C 191.223 235.187,208.027 235.187,208.589 234.625 C 208.875 234.339,209.591 234.250,211.607 234.250 C 213.202 234.250,214.250 234.151,214.250 234.000 C 214.250 233.857,215.026 233.747,216.063 233.742 C 217.258 233.737,218.040 233.609,218.360 233.367 C 218.658 233.142,219.408 233.000,220.298 233.000 C 221.099 233.000,221.750 232.888,221.750 232.750 C 221.750 232.613,222.304 232.500,222.982 232.500 C 223.744 232.500,224.357 232.357,224.589 232.125 C 224.798 231.916,225.409 231.750,225.967 231.750 C 226.519 231.750,227.040 231.637,227.125 231.500 C 227.210 231.363,227.709 231.250,228.234 231.250 C 228.778 231.250,229.323 231.089,229.500 230.875 C 229.671 230.669,230.185 230.500,230.641 230.500 C 231.097 230.500,231.540 230.387,231.625 230.250 C 231.710 230.113,232.167 230.000,232.640 230.000 C 233.238 230.000,233.500 229.886,233.500 229.625 C 233.500 229.364,233.762 229.250,234.360 229.250 C 234.833 229.250,235.290 229.137,235.375 229.000 C 235.460 228.863,235.854 228.750,236.250 228.750 C 236.646 228.750,237.032 228.650,237.107 228.528 C 237.183 228.406,237.639 228.233,238.122 228.142 C 238.605 228.051,239.000 227.870,239.000 227.739 C 239.000 227.607,239.281 227.500,239.625 227.500 C 239.969 227.500,240.250 227.387,240.250 227.250 C 240.250 227.113,240.523 227.000,240.857 227.000 C 241.191 227.000,241.633 226.831,241.839 226.625 C 242.046 226.419,242.441 226.250,242.717 226.250 C 242.994 226.250,243.290 226.137,243.375 226.000 C 243.460 225.863,243.740 225.750,243.997 225.750 C 244.254 225.750,244.633 225.581,244.839 225.375 C 245.046 225.169,245.447 225.000,245.732 225.000 C 246.017 225.000,246.250 224.900,246.250 224.777 C 246.250 224.655,246.531 224.484,246.875 224.397 C 247.219 224.311,247.500 224.130,247.500 223.995 C 247.500 223.860,247.838 223.750,248.250 223.750 C 248.662 223.750,249.000 223.637,249.000 223.500 C 249.000 223.363,249.225 223.250,249.500 223.250 C 249.778 223.250,250.000 223.083,250.000 222.875 C 250.000 222.642,250.236 222.500,250.625 222.500 C 250.969 222.500,251.250 222.387,251.250 222.250 C 251.250 222.113,251.479 222.000,251.758 222.000 C 252.037 222.000,252.330 221.831,252.410 221.625 C 252.489 221.419,252.773 221.250,253.042 221.250 C 253.310 221.250,253.460 221.137,253.375 221.000 C 253.287 220.858,253.497 220.750,253.860 220.750 C 254.212 220.750,254.500 220.637,254.500 220.500 C 254.500 220.363,254.661 220.250,254.857 220.250 C 255.054 220.250,255.363 220.102,255.545 219.922 C 255.726 219.742,256.241 219.433,256.688 219.236 C 257.134 219.039,257.500 218.737,257.500 218.564 C 257.500 218.391,257.730 218.250,258.011 218.250 C 258.292 218.250,258.825 217.969,259.196 217.625 C 259.567 217.281,260.012 217.000,260.185 217.000 C 260.358 217.000,260.500 216.901,260.500 216.779 C 260.500 216.658,260.697 216.492,260.938 216.411 C 261.566 216.201,262.288 215.710,262.924 215.063 C 263.228 214.753,263.609 214.500,263.772 214.500 C 263.935 214.500,264.328 214.219,264.647 213.875 C 264.965 213.531,265.347 213.250,265.495 213.250 C 265.721 213.250,266.628 212.522,267.848 211.361 C 268.000 211.216,268.491 210.882,268.938 210.620 C 269.384 210.357,269.750 210.054,269.750 209.946 C 269.750 209.838,269.919 209.750,270.125 209.750 C 270.331 209.750,270.500 209.629,270.500 209.482 C 270.500 209.166,271.124 208.500,271.420 208.500 C 271.534 208.500,272.223 207.938,272.951 207.250 C 273.679 206.563,274.382 206.000,274.513 206.000 C 274.643 206.000,274.750 205.831,274.750 205.625 C 274.750 205.419,274.925 205.250,275.140 205.250 C 275.354 205.250,275.460 205.137,275.375 205.000 C 275.290 204.863,275.355 204.750,275.520 204.750 C 275.867 204.750,276.480 204.012,276.492 203.580 C 276.508 203.000,274.679 200.245,273.224 198.657 C 271.039 196.273,268.950 195.040,265.125 193.878 C 263.887 193.503,262.594 193.098,262.250 192.978 C 261.906 192.859,261.063 192.644,260.375 192.500 C 259.072 192.227,256.737 191.585,255.875 191.263 C 253.141 190.241,250.755 189.523,248.375 189.005 C 246.863 188.676,245.226 188.281,244.250 188.010 C 243.769 187.877,242.137 187.477,240.625 187.122 C 239.113 186.767,237.481 186.378,237.000 186.256 C 236.519 186.135,235.338 185.853,234.375 185.630 C 230.931 184.830,228.011 184.030,227.441 183.729 C 227.202 183.603,226.901 183.500,226.771 183.500 C 226.641 183.500,225.824 183.158,224.955 182.740 C 220.070 180.390,216.963 177.377,216.586 174.622 C 216.488 173.908,216.306 173.500,216.086 173.500 C 215.599 173.500,215.836 174.538,216.813 176.688 C 217.177 177.489,220.868 181.250,221.291 181.250 C 221.449 181.250,221.926 181.505,222.351 181.818 C 222.777 182.130,223.463 182.537,223.875 182.722 C 224.287 182.907,224.841 183.171,225.105 183.308 C 226.658 184.115,229.954 185.157,231.750 185.409 C 232.231 185.476,232.850 185.630,233.125 185.751 C 233.584 185.953,234.418 186.161,237.125 186.751 C 237.675 186.870,238.800 187.157,239.625 187.387 C 240.450 187.617,241.575 187.861,242.125 187.928 C 242.675 187.996,243.232 188.152,243.362 188.276 C 243.493 188.399,243.919 188.500,244.308 188.500 C 244.697 188.500,245.420 188.669,245.914 188.875 C 246.407 189.081,247.184 189.250,247.641 189.250 C 248.097 189.250,248.540 189.363,248.625 189.500 C 248.710 189.637,249.037 189.750,249.352 189.750 C 251.316 189.750,251.714 190.294,250.951 191.940 C 248.405 197.439,240.345 203.148,230.500 206.427 C 227.200 207.525,224.344 208.324,222.250 208.733 C 221.631 208.854,220.256 209.130,219.195 209.346 C 211.695 210.873,200.332 211.604,193.250 211.016 C 185.885 210.403,183.583 210.085,176.875 208.753 C 174.888 208.358,169.076 206.669,167.375 205.992 C 167.100 205.883,165.975 205.434,164.875 204.995 C 157.467 202.039,151.212 197.240,148.515 192.445 C 147.476 190.598,147.611 190.087,149.200 189.857 C 149.846 189.763,150.488 189.602,150.625 189.498 C 150.762 189.394,151.269 189.256,151.750 189.192 C 152.753 189.057,154.888 188.528,155.625 188.232 C 155.900 188.121,156.519 187.979,157.000 187.916 C 157.481 187.853,158.550 187.613,159.375 187.382 C 160.200 187.152,161.381 186.870,162.000 186.755 C 162.619 186.640,163.800 186.357,164.625 186.125 C 165.450 185.894,166.575 185.647,167.125 185.577 C 167.675 185.506,168.232 185.348,168.363 185.224 C 168.493 185.101,168.856 185.000,169.170 185.000 C 169.840 185.000,172.185 184.171,173.833 183.352 C 174.222 183.158,174.661 183.000,174.809 183.000 C 176.711 183.000,183.000 176.846,183.000 174.984 C 183.000 174.700,183.116 174.250,183.259 173.984 C 183.462 173.603,183.436 173.500,183.134 173.500 C 182.892 173.500,182.750 173.729,182.750 174.118 " stroke="none" fill="#9d9ca0" fill-rule="evenodd"></path><path id="path2" d="M201.641 14.723 C 201.547 14.875,201.590 15.000,201.735 15.000 C 202.302 15.000,202.075 24.333,201.500 24.692 C 201.027 24.987,201.000 25.275,201.000 29.968 C 201.000 34.554,201.038 34.981,201.500 35.568 C 201.958 36.151,202.000 36.582,202.000 40.725 C 202.000 44.975,201.970 45.264,201.500 45.558 C 200.011 46.488,200.813 47.120,203.938 47.481 C 207.448 47.886,209.400 48.149,211.250 48.465 C 212.465 48.673,213.203 48.855,216.375 49.729 C 217.790 50.119,220.375 51.008,220.809 51.254 C 221.048 51.389,221.365 51.500,221.514 51.500 C 221.663 51.500,222.930 52.048,224.330 52.719 C 225.730 53.389,227.044 54.009,227.250 54.097 C 227.456 54.185,228.188 54.599,228.875 55.017 C 229.563 55.435,230.322 55.840,230.563 55.917 C 230.803 55.995,231.000 56.158,231.000 56.279 C 231.000 56.401,231.151 56.500,231.337 56.500 C 231.823 56.500,233.043 57.145,233.680 57.739 C 233.982 58.020,234.298 58.250,234.382 58.250 C 234.467 58.250,234.693 58.391,234.884 58.563 C 235.642 59.242,235.986 59.500,236.133 59.500 C 236.218 59.500,236.700 59.896,237.206 60.381 C 237.711 60.865,239.142 62.206,240.385 63.361 C 241.627 64.515,242.809 65.778,243.010 66.167 C 243.211 66.557,243.853 67.379,244.438 67.996 C 245.022 68.612,245.500 69.185,245.500 69.270 C 245.500 69.354,245.735 69.694,246.021 70.024 C 247.179 71.359,249.616 74.848,250.222 76.040 C 250.408 76.405,250.856 77.037,251.218 77.443 C 252.054 78.382,252.500 79.140,252.500 79.622 C 252.500 79.830,252.591 80.000,252.702 80.000 C 252.923 80.000,253.750 81.742,253.750 82.209 C 253.750 82.369,253.855 82.500,253.983 82.500 C 254.111 82.500,254.287 82.753,254.374 83.063 C 254.563 83.739,254.938 84.639,255.405 85.539 C 255.595 85.904,255.749 86.354,255.747 86.539 C 255.743 86.938,257.453 92.433,257.776 93.059 C 257.899 93.298,258.000 93.826,258.000 94.232 C 258.000 94.638,258.097 95.030,258.215 95.103 C 258.333 95.177,258.502 95.762,258.590 96.405 C 258.679 97.048,258.850 97.698,258.971 97.850 C 259.315 98.278,259.799 100.470,259.915 102.125 C 259.973 102.950,260.120 103.850,260.241 104.125 C 260.362 104.400,260.525 107.719,260.603 111.500 C 260.681 115.281,260.847 118.726,260.971 119.154 C 261.106 119.621,261.097 121.821,260.949 124.654 C 260.521 132.858,260.442 140.000,260.778 140.000 C 261.002 140.000,261.026 140.638,260.877 142.563 C 260.768 143.972,260.610 155.772,260.527 168.784 L 260.375 192.443 261.875 192.879 C 269.833 195.192,272.902 197.139,275.407 201.466 C 276.729 203.750,276.498 203.706,278.278 202.012 C 279.152 201.180,279.953 200.500,280.059 200.500 C 280.164 200.500,280.250 200.331,280.250 200.125 C 280.250 199.919,280.419 199.750,280.625 199.750 C 280.831 199.750,281.000 199.653,281.000 199.535 C 281.000 199.417,281.394 198.902,281.875 198.392 C 282.356 197.882,282.750 197.411,282.750 197.347 C 282.750 197.204,283.097 196.786,284.250 195.536 C 284.731 195.015,285.406 194.221,285.750 193.772 C 286.094 193.324,286.516 192.806,286.688 192.621 C 286.859 192.437,287.000 192.107,287.000 191.887 C 287.000 191.668,287.272 191.365,287.605 191.214 C 287.938 191.062,288.155 190.794,288.088 190.619 C 288.021 190.444,288.088 190.225,288.237 190.133 C 288.386 190.041,288.443 189.861,288.364 189.733 C 288.285 189.605,288.377 189.500,288.568 189.500 C 288.759 189.500,289.074 189.191,289.267 188.813 C 289.460 188.434,289.853 187.896,290.140 187.616 C 290.426 187.336,290.821 186.745,291.017 186.303 C 291.212 185.861,291.492 185.500,291.639 185.500 C 291.786 185.500,292.061 185.106,292.250 184.625 C 292.439 184.144,292.748 183.750,292.936 183.750 C 293.125 183.750,293.211 183.638,293.126 183.502 C 293.042 183.366,293.088 183.056,293.229 182.814 C 293.370 182.573,293.490 182.488,293.496 182.625 C 293.509 182.900,294.149 181.881,294.400 181.188 C 294.487 180.947,294.658 180.750,294.779 180.750 C 294.901 180.750,295.000 180.573,295.000 180.357 C 295.000 180.141,295.141 179.807,295.313 179.616 C 296.087 178.752,296.250 178.497,296.250 178.150 C 296.250 177.946,296.355 177.714,296.484 177.635 C 296.782 177.451,297.500 176.022,297.500 175.613 C 297.500 175.443,297.669 175.239,297.875 175.160 C 298.081 175.080,298.250 174.794,298.250 174.523 C 298.250 174.251,298.363 173.960,298.500 173.875 C 298.637 173.790,298.750 173.514,298.750 173.262 C 298.750 173.010,298.926 172.736,299.141 172.654 C 299.356 172.571,299.467 172.399,299.389 172.272 C 299.310 172.145,299.415 171.871,299.623 171.663 C 299.830 171.455,300.000 171.053,300.000 170.768 C 300.000 170.483,300.088 170.250,300.195 170.250 C 300.364 170.250,300.489 169.684,300.564 168.586 C 300.575 168.428,300.733 168.355,300.917 168.426 C 301.150 168.515,301.250 168.321,301.250 167.777 C 301.250 167.350,301.363 167.000,301.500 167.000 C 301.637 167.000,301.750 166.797,301.750 166.548 C 301.750 166.299,301.915 165.877,302.117 165.610 C 302.319 165.343,302.488 164.872,302.492 164.563 C 302.496 164.253,302.613 164.000,302.750 164.000 C 302.887 164.000,303.000 163.728,303.000 163.395 C 303.000 162.577,303.253 161.973,303.526 162.141 C 303.649 162.217,303.750 161.935,303.750 161.515 C 303.750 161.094,303.863 160.750,304.000 160.750 C 304.137 160.750,304.250 160.404,304.250 159.982 C 304.250 159.560,304.419 159.046,304.625 158.839 C 304.831 158.633,305.000 158.135,305.000 157.732 C 305.000 157.329,305.113 157.000,305.250 157.000 C 305.387 157.000,305.504 156.634,305.508 156.188 C 305.512 155.741,305.681 155.157,305.883 154.890 C 306.085 154.623,306.250 154.095,306.250 153.717 C 306.250 153.339,306.342 152.973,306.455 152.903 C 306.567 152.833,306.687 152.182,306.720 151.456 C 306.753 150.730,306.892 150.067,307.028 149.983 C 307.165 149.898,307.257 149.727,307.234 149.602 C 307.210 149.477,307.216 149.262,307.246 149.125 C 307.276 148.988,307.282 148.524,307.259 148.096 C 307.234 147.627,307.357 147.263,307.567 147.182 C 307.805 147.091,307.934 146.555,307.972 145.504 C 308.003 144.655,308.128 143.696,308.250 143.375 C 308.373 143.053,308.498 142.167,308.529 141.406 C 308.559 140.645,308.665 140.073,308.764 140.134 C 309.072 140.324,309.243 139.207,309.247 136.987 C 309.248 135.812,309.365 134.735,309.506 134.594 C 310.095 134.005,309.484 109.860,308.868 109.390 C 308.636 109.213,308.504 108.520,308.472 107.313 C 308.446 106.316,308.329 105.500,308.212 105.500 C 308.095 105.500,308.000 104.951,308.000 104.281 C 308.000 103.610,307.823 102.636,307.606 102.118 C 307.389 101.599,307.266 100.964,307.334 100.708 C 307.401 100.451,307.297 100.082,307.103 99.888 C 306.909 99.694,306.750 99.127,306.750 98.627 C 306.750 97.730,306.182 95.533,305.732 94.691 C 305.604 94.452,305.500 93.924,305.500 93.518 C 305.500 93.112,305.387 92.710,305.250 92.625 C 305.113 92.540,305.000 92.161,305.000 91.783 C 305.000 91.405,304.835 90.877,304.633 90.610 C 304.431 90.343,304.262 89.879,304.258 89.577 C 304.254 89.276,304.137 88.960,304.000 88.875 C 303.863 88.790,303.750 88.442,303.750 88.102 C 303.750 87.762,303.581 87.420,303.375 87.340 C 303.166 87.260,303.000 86.888,303.000 86.500 C 303.000 86.115,302.834 85.740,302.629 85.661 C 302.402 85.574,302.321 85.357,302.420 85.098 C 302.518 84.841,302.414 84.556,302.152 84.364 C 301.913 84.189,301.702 83.667,301.675 83.182 C 301.644 82.633,301.517 82.355,301.331 82.426 C 301.146 82.497,301.083 82.363,301.161 82.065 C 301.229 81.804,301.108 81.444,300.892 81.264 C 300.677 81.085,300.500 80.665,300.500 80.330 C 300.500 79.987,300.391 79.788,300.250 79.875 C 300.112 79.961,299.996 79.772,299.992 79.452 C 299.988 79.135,299.819 78.657,299.617 78.390 C 299.415 78.123,299.250 77.701,299.250 77.452 C 299.250 77.203,299.137 77.000,299.000 77.000 C 298.863 77.000,298.750 76.813,298.750 76.584 C 298.750 76.022,297.954 74.250,297.702 74.250 C 297.591 74.250,297.500 73.969,297.500 73.625 C 297.500 73.281,297.414 73.000,297.309 73.000 C 297.106 73.000,296.920 72.689,296.129 71.037 C 295.855 70.467,295.490 70.000,295.316 70.000 C 295.142 70.000,295.000 69.767,295.000 69.482 C 295.000 69.197,294.859 68.807,294.688 68.616 C 294.116 67.979,293.878 67.632,293.500 66.883 C 293.294 66.474,292.956 65.957,292.750 65.733 C 292.119 65.047,291.616 64.388,291.524 64.125 C 291.258 63.367,291.164 63.250,290.822 63.250 C 290.587 63.250,290.502 63.106,290.594 62.866 C 290.678 62.647,290.582 62.420,290.371 62.339 C 290.167 62.261,290.000 62.040,290.000 61.848 C 290.000 61.657,289.887 61.500,289.750 61.500 C 289.613 61.500,289.500 61.343,289.500 61.152 C 289.500 60.960,289.324 60.736,289.109 60.654 C 288.894 60.571,288.779 60.405,288.853 60.285 C 288.976 60.087,288.344 59.279,286.438 57.198 C 286.059 56.785,285.750 56.338,285.750 56.206 C 285.750 56.073,285.609 55.807,285.438 55.616 C 284.696 54.789,284.500 54.506,284.500 54.261 C 284.500 54.117,284.387 54.000,284.250 54.000 C 284.113 54.000,284.000 53.831,284.000 53.625 C 284.000 53.419,283.873 53.250,283.717 53.250 C 283.426 53.250,283.169 52.988,281.875 51.368 C 281.462 50.852,280.928 50.221,280.688 49.965 C 280.447 49.709,280.250 49.387,280.250 49.250 C 280.250 49.112,280.129 49.000,279.982 49.000 C 279.636 49.000,279.000 48.364,279.000 48.018 C 279.000 47.871,278.904 47.750,278.786 47.750 C 278.668 47.750,278.021 47.208,277.348 46.546 C 275.788 45.009,274.378 43.956,274.165 44.168 C 274.074 44.259,274.000 44.146,274.000 43.917 C 274.000 43.688,273.869 43.500,273.708 43.500 C 273.548 43.500,273.488 43.429,273.575 43.342 C 273.662 43.255,273.282 42.856,272.730 42.457 C 272.178 42.057,271.664 41.566,271.587 41.365 C 271.510 41.164,271.333 41.000,271.194 41.000 C 270.788 41.000,269.269 39.566,269.456 39.358 C 269.549 39.255,269.471 39.259,269.282 39.368 C 269.054 39.500,268.662 39.284,268.109 38.721 C 266.592 37.177,266.110 36.750,265.882 36.750 C 265.635 36.750,263.176 34.752,263.042 34.442 C 262.996 34.337,262.815 34.250,262.641 34.250 C 262.466 34.250,262.020 33.969,261.649 33.625 C 261.278 33.281,260.838 33.000,260.672 33.000 C 260.506 33.000,260.067 32.719,259.696 32.375 C 259.325 32.031,258.876 31.750,258.698 31.750 C 258.521 31.750,258.048 31.468,257.649 31.125 C 257.249 30.781,256.771 30.500,256.586 30.500 C 256.401 30.500,256.250 30.414,256.250 30.309 C 256.250 30.118,255.509 29.667,254.688 29.357 C 254.447 29.266,254.250 29.092,254.250 28.971 C 254.250 28.849,254.032 28.750,253.765 28.750 C 253.498 28.750,253.214 28.645,253.135 28.516 C 252.951 28.218,251.522 27.500,251.113 27.500 C 250.943 27.500,250.739 27.331,250.660 27.125 C 250.580 26.919,250.287 26.750,250.008 26.750 C 249.729 26.750,249.500 26.637,249.500 26.500 C 249.500 26.363,249.219 26.250,248.875 26.250 C 248.531 26.250,248.250 26.159,248.250 26.048 C 248.250 25.856,246.534 25.000,246.148 25.000 C 246.047 25.000,245.796 24.831,245.589 24.625 C 245.383 24.419,244.941 24.250,244.607 24.250 C 244.273 24.250,244.000 24.137,244.000 24.000 C 244.000 23.863,243.725 23.750,243.390 23.750 C 243.054 23.750,242.710 23.637,242.625 23.500 C 242.540 23.363,242.249 23.250,241.977 23.250 C 241.706 23.250,241.430 23.109,241.364 22.938 C 241.297 22.766,240.895 22.612,240.470 22.597 C 240.045 22.582,239.625 22.469,239.536 22.347 C 239.447 22.225,239.150 22.086,238.875 22.039 C 238.600 21.991,238.240 21.842,238.076 21.706 C 237.911 21.571,237.405 21.404,236.951 21.335 C 236.497 21.265,236.018 21.105,235.887 20.979 C 235.757 20.853,235.414 20.750,235.125 20.750 C 234.836 20.750,234.470 20.620,234.312 20.462 C 234.153 20.303,233.683 20.183,233.267 20.195 C 232.811 20.208,232.534 20.099,232.568 19.921 C 232.603 19.739,232.251 19.610,231.655 19.587 C 231.121 19.566,230.603 19.417,230.503 19.255 C 230.404 19.094,229.858 18.900,229.291 18.824 C 228.724 18.748,228.307 18.610,228.364 18.518 C 228.451 18.376,227.649 18.245,226.313 18.181 C 226.141 18.173,226.000 18.097,226.000 18.012 C 226.000 17.873,225.148 17.729,223.956 17.665 C 223.725 17.653,223.603 17.535,223.684 17.404 C 223.768 17.269,223.655 17.233,223.424 17.322 C 223.200 17.408,222.950 17.371,222.868 17.239 C 222.787 17.108,222.165 17.000,221.485 17.000 C 220.666 17.000,220.249 16.895,220.246 16.688 C 220.244 16.494,220.172 16.470,220.059 16.625 C 219.958 16.762,219.715 16.909,219.520 16.952 C 219.255 17.009,219.234 16.946,219.436 16.702 C 219.654 16.439,219.415 16.377,218.214 16.383 C 217.393 16.388,216.623 16.273,216.503 16.129 C 216.383 15.984,215.464 15.832,214.459 15.791 C 213.455 15.750,212.559 15.595,212.467 15.447 C 212.375 15.298,212.131 15.242,211.925 15.321 C 211.718 15.401,211.488 15.405,211.415 15.331 C 211.341 15.257,210.064 15.195,208.578 15.192 C 207.091 15.190,205.678 15.085,205.438 14.960 C 205.165 14.818,205.000 14.824,205.000 14.975 C 205.000 15.108,204.691 15.155,204.313 15.079 C 203.934 15.004,203.287 14.938,202.875 14.933 C 202.463 14.928,202.055 14.817,201.969 14.685 C 201.873 14.540,201.746 14.555,201.641 14.723 M145.000 29.000 C 145.000 29.137,145.169 29.250,145.375 29.250 C 145.581 29.250,145.750 29.137,145.750 29.000 C 145.750 28.863,145.581 28.750,145.375 28.750 C 145.169 28.750,145.000 28.863,145.000 29.000 M137.160 33.673 C 136.878 33.955,136.988 34.250,137.375 34.250 C 137.581 34.250,137.750 34.144,137.750 34.015 C 137.750 33.700,137.360 33.474,137.160 33.673 M135.160 35.125 C 135.072 35.353,135.159 35.500,135.383 35.500 C 135.585 35.500,135.750 35.331,135.750 35.125 C 135.750 34.919,135.650 34.750,135.527 34.750 C 135.404 34.750,135.239 34.919,135.160 35.125 M117.102 51.625 C 116.877 51.969,116.514 52.250,116.296 52.250 C 115.992 52.250,115.968 52.318,116.195 52.545 C 116.421 52.771,116.599 52.712,116.961 52.295 C 117.221 51.995,117.561 51.750,117.717 51.750 C 117.873 51.750,118.000 51.581,118.000 51.375 C 118.000 50.804,117.560 50.927,117.102 51.625 M101.250 74.125 C 101.250 74.285,101.419 74.417,101.625 74.417 C 101.831 74.417,102.000 74.285,102.000 74.125 C 102.000 73.965,101.831 73.833,101.625 73.833 C 101.419 73.833,101.250 73.965,101.250 74.125 M152.116 77.313 C 152.050 77.484,152.026 99.169,152.061 125.500 L 152.125 173.375 199.849 173.438 C 234.915 173.485,247.662 173.427,247.911 173.220 C 248.383 172.829,248.421 77.771,247.950 77.300 C 247.502 76.852,152.286 76.864,152.116 77.313 M245.438 125.313 L 245.501 170.501 200.063 170.438 L 154.625 170.375 154.562 125.390 C 154.512 89.567,154.562 80.365,154.812 80.206 C 154.984 80.097,175.431 80.033,200.250 80.066 L 245.375 80.125 245.438 125.313 M159.862 86.567 C 159.795 86.742,159.771 89.583,159.808 92.880 L 159.875 98.875 161.182 98.950 L 162.489 99.026 162.557 94.075 L 162.625 89.125 167.500 89.000 L 172.375 88.875 172.451 87.563 L 172.526 86.250 166.255 86.250 C 161.417 86.250,159.956 86.323,159.862 86.567 M226.549 87.563 L 226.625 88.875 231.364 88.943 C 234.772 88.992,236.157 89.098,236.297 89.318 C 236.405 89.487,236.494 91.734,236.496 94.313 L 236.500 99.000 237.875 99.000 L 239.250 99.000 239.250 92.625 L 239.250 86.250 232.862 86.250 L 226.474 86.250 226.549 87.563 M94.583 90.167 C 94.583 90.350,94.733 90.500,94.917 90.500 C 95.100 90.500,95.250 90.350,95.250 90.167 C 95.250 89.983,95.100 89.833,94.917 89.833 C 94.733 89.833,94.583 89.983,94.583 90.167 M165.914 107.707 C 165.322 108.362,165.388 109.626,166.047 110.240 C 167.666 111.748,169.998 109.416,168.490 107.797 C 167.852 107.112,166.495 107.064,165.914 107.707 M231.688 107.804 C 230.386 109.433,232.154 111.480,233.884 110.346 C 234.658 109.839,234.749 108.303,234.043 107.664 C 233.391 107.074,232.215 107.144,231.688 107.804 M90.250 108.610 C 90.250 108.962,90.362 109.250,90.500 109.250 C 90.638 109.250,90.750 109.032,90.750 108.765 C 90.750 108.498,90.638 108.210,90.500 108.125 C 90.358 108.037,90.250 108.247,90.250 108.610 M89.823 113.000 C 89.894 113.276,89.851 113.438,89.727 113.361 C 89.602 113.284,89.500 113.396,89.500 113.610 C 89.500 113.825,89.669 114.000,89.875 114.000 C 90.125 114.000,90.250 113.750,90.250 113.250 C 90.250 112.838,90.124 112.500,89.971 112.500 C 89.815 112.500,89.749 112.720,89.823 113.000 M187.659 115.018 C 186.872 115.637,186.757 116.954,187.438 117.567 C 189.244 119.195,191.604 116.831,189.886 115.114 C 189.137 114.364,188.524 114.338,187.659 115.018 M210.625 114.804 C 209.460 115.467,209.205 116.477,209.956 117.453 C 210.937 118.729,213.000 117.921,213.000 116.261 C 213.000 115.119,211.591 114.254,210.625 114.804 M171.225 129.526 C 169.838 131.011,171.466 133.205,173.247 132.251 C 174.441 131.612,174.447 129.872,173.258 129.169 C 172.284 128.594,172.060 128.633,171.225 129.526 M226.500 129.500 C 225.437 130.563,226.104 132.281,227.596 132.323 C 229.229 132.370,229.995 130.988,229.096 129.616 C 228.581 128.830,227.230 128.770,226.500 129.500 M89.843 136.429 C 89.891 137.388,90.140 137.699,90.317 137.022 C 90.388 136.747,90.302 136.325,90.125 136.083 C 89.839 135.691,89.807 135.730,89.843 136.429 M198.794 136.579 C 198.114 137.302,198.096 138.346,198.750 139.000 C 199.764 140.014,201.750 139.294,201.750 137.912 C 201.750 136.259,199.884 135.418,198.794 136.579 M92.189 150.416 C 92.362 150.486,92.440 150.646,92.362 150.771 C 92.284 150.897,92.340 151.000,92.485 151.000 C 92.631 151.000,92.750 150.831,92.750 150.625 C 92.750 150.419,92.553 150.259,92.313 150.270 C 92.049 150.282,92.000 150.340,92.189 150.416 M92.750 152.969 C 92.750 153.261,92.856 153.500,92.985 153.500 C 93.418 153.500,93.498 153.060,93.122 152.748 C 92.812 152.491,92.750 152.528,92.750 152.969 M159.917 152.917 C 159.678 153.156,159.718 164.812,159.959 165.192 C 160.114 165.437,161.548 165.494,166.268 165.442 L 172.375 165.375 172.451 164.063 L 172.526 162.750 167.909 162.750 C 161.851 162.750,162.500 163.368,162.500 157.598 L 162.500 152.750 161.292 152.750 C 160.627 152.750,160.008 152.825,159.917 152.917 M236.500 157.450 C 236.500 163.279,237.029 162.750,231.200 162.750 L 226.500 162.750 226.500 164.129 L 226.500 165.509 232.813 165.442 L 239.125 165.375 239.192 159.063 L 239.259 152.750 237.879 152.750 L 236.500 152.750 236.500 157.450 M93.250 155.102 C 93.250 155.287,93.419 155.579,93.625 155.750 C 93.937 156.009,94.000 155.977,94.000 155.557 C 94.000 155.280,93.831 154.989,93.625 154.910 C 93.406 154.826,93.250 154.906,93.250 155.102 M94.000 157.383 C 94.000 157.787,94.391 157.879,94.609 157.526 C 94.685 157.403,94.579 157.238,94.374 157.159 C 94.147 157.072,94.000 157.160,94.000 157.383 M198.664 159.457 C 197.787 160.426,198.665 162.500,199.952 162.500 C 201.323 162.500,202.277 160.304,201.293 159.414 C 200.675 158.855,199.187 158.879,198.664 159.457 M99.500 171.485 C 99.500 171.904,99.943 172.008,100.091 171.624 C 100.178 171.397,100.090 171.250,99.867 171.250 C 99.665 171.250,99.500 171.356,99.500 171.485 M101.410 175.375 C 101.322 175.603,101.409 175.750,101.633 175.750 C 101.835 175.750,102.000 175.581,102.000 175.375 C 102.000 175.169,101.900 175.000,101.777 175.000 C 101.654 175.000,101.489 175.169,101.410 175.375 M102.557 177.547 C 102.682 177.920,103.250 178.126,103.250 177.798 C 103.250 177.663,103.072 177.485,102.854 177.402 C 102.611 177.308,102.496 177.364,102.557 177.547 M112.308 192.250 C 112.480 192.525,112.707 192.750,112.812 192.750 C 112.918 192.750,112.864 192.525,112.692 192.250 C 112.520 191.975,112.293 191.750,112.188 191.750 C 112.082 191.750,112.136 191.975,112.308 192.250 M127.984 196.520 L 127.125 197.280 128.000 196.703 C 128.481 196.386,128.922 196.098,128.979 196.063 C 129.036 196.029,129.029 195.946,128.964 195.880 C 128.898 195.814,128.457 196.102,127.984 196.520 M115.750 196.500 C 115.897 196.775,116.211 196.996,116.446 196.992 C 116.849 196.985,116.849 196.964,116.441 196.655 C 116.203 196.474,116.081 196.252,116.171 196.163 C 116.260 196.073,116.142 196.000,115.908 196.000 C 115.560 196.000,115.531 196.091,115.750 196.500 " stroke="none" fill="#00aeef" fill-rule="evenodd"></path><path id="path3" d="" stroke="none" fill="#00ffff" fill-rule="evenodd"></path><path id="path4" d="M201.915 91.402 C 200.481 93.434,196.851 97.346,195.707 98.093 C 195.151 98.455,193.177 98.668,185.000 99.247 C 180.804 99.544,175.709 99.982,174.625 100.138 C 174.075 100.218,172.162 100.388,170.375 100.518 C 165.963 100.837,163.558 101.109,163.355 101.311 C 163.172 101.495,163.337 104.322,164.517 121.125 C 164.873 126.198,165.198 129.606,165.366 130.027 C 165.454 130.247,165.628 131.429,165.754 132.652 C 166.103 136.062,166.451 138.469,166.640 138.774 C 166.734 138.926,166.904 139.686,167.018 140.462 C 167.416 143.160,168.153 145.986,168.567 146.400 C 168.668 146.501,168.750 146.730,168.750 146.910 C 168.750 148.458,175.105 155.728,178.875 158.494 C 179.700 159.099,180.412 159.685,180.458 159.797 C 180.504 159.909,180.652 160.000,180.788 160.000 C 180.992 160.000,181.479 160.319,183.000 161.448 C 183.069 161.499,183.181 163.528,183.250 165.958 L 183.375 170.375 199.625 170.375 L 215.875 170.375 215.943 165.945 C 216.011 161.533,216.014 161.513,216.639 161.070 C 216.985 160.825,217.646 160.344,218.109 160.000 C 218.571 159.656,219.262 159.150,219.642 158.875 C 225.004 155.002,229.566 149.613,230.860 145.625 C 232.187 141.532,233.785 131.392,234.535 122.305 C 235.071 115.813,235.805 101.541,235.619 101.240 C 235.472 101.003,233.276 100.655,228.625 100.133 C 226.700 99.917,224.225 99.629,223.125 99.495 C 222.025 99.360,220.619 99.206,220.000 99.151 C 212.839 98.520,212.799 98.506,212.699 96.436 C 212.610 94.610,212.261 94.394,211.470 95.676 C 210.883 96.628,210.411 97.256,209.795 97.903 C 209.339 98.381,202.115 98.410,201.932 97.935 C 201.866 97.761,202.051 97.114,202.343 96.497 C 203.492 94.073,204.061 91.030,203.586 89.854 C 203.399 89.394,203.207 89.572,201.915 91.402 M168.490 107.797 C 169.998 109.416,167.666 111.748,166.047 110.240 C 165.388 109.626,165.322 108.362,165.914 107.707 C 166.495 107.064,167.852 107.112,168.490 107.797 M234.043 107.664 C 234.749 108.303,234.658 109.839,233.884 110.346 C 232.117 111.504,230.358 109.468,231.688 107.804 C 232.215 107.144,233.391 107.074,234.043 107.664 M190.025 115.276 C 190.898 116.211,190.898 116.209,190.170 117.276 C 189.154 118.763,187.000 118.137,187.000 116.354 C 187.000 114.643,188.825 113.992,190.025 115.276 M212.563 115.193 C 213.367 115.900,213.025 117.667,212.033 117.928 C 209.672 118.550,208.523 116.001,210.625 114.804 C 211.191 114.482,211.918 114.628,212.563 115.193 M173.256 129.168 C 175.066 130.238,173.994 132.884,171.958 132.373 C 171.618 132.288,171.150 131.899,170.919 131.508 C 169.978 129.915,171.664 128.228,173.256 129.168 M229.096 129.616 C 229.995 130.988,229.229 132.370,227.596 132.323 C 225.303 132.258,225.548 129.000,227.846 129.000 C 228.470 129.000,228.799 129.162,229.096 129.616 M201.264 136.563 C 202.016 137.464,201.898 138.660,201.012 139.119 C 199.000 140.159,197.380 138.416,198.688 136.617 C 199.276 135.807,200.610 135.779,201.264 136.563 M201.293 159.414 C 202.277 160.304,201.323 162.500,199.952 162.500 C 198.665 162.500,197.787 160.426,198.664 159.457 C 199.187 158.879,200.675 158.855,201.293 159.414 M183.259 173.984 C 183.116 174.250,183.000 174.700,183.000 174.984 C 183.000 176.846,176.711 183.000,174.809 183.000 C 174.661 183.000,174.222 183.158,173.833 183.352 C 172.185 184.171,169.840 185.000,169.170 185.000 C 168.856 185.000,168.493 185.101,168.363 185.224 C 168.232 185.348,167.675 185.506,167.125 185.577 C 166.575 185.647,165.450 185.894,164.625 186.125 C 163.800 186.357,162.619 186.640,162.000 186.755 C 161.381 186.870,160.200 187.152,159.375 187.382 C 158.550 187.613,157.481 187.853,157.000 187.916 C 156.519 187.979,155.900 188.121,155.625 188.232 C 154.888 188.528,152.753 189.057,151.750 189.192 C 151.269 189.256,150.762 189.394,150.625 189.498 C 150.488 189.602,149.846 189.763,149.200 189.857 C 147.611 190.087,147.476 190.598,148.515 192.445 C 151.212 197.240,157.467 202.039,164.875 204.995 C 165.975 205.434,167.100 205.883,167.375 205.992 C 169.076 206.669,174.888 208.358,176.875 208.753 C 183.583 210.085,185.885 210.403,193.250 211.016 C 200.332 211.604,211.695 210.873,219.195 209.346 C 220.256 209.130,221.631 208.857,222.250 208.740 C 222.869 208.624,224.050 208.341,224.875 208.112 C 225.700 207.883,226.713 207.610,227.125 207.504 C 237.796 204.767,248.140 198.010,250.951 191.940 C 251.714 190.294,251.316 189.750,249.352 189.750 C 249.037 189.750,248.710 189.637,248.625 189.500 C 248.540 189.363,248.097 189.250,247.641 189.250 C 247.184 189.250,246.407 189.081,245.914 188.875 C 245.420 188.669,244.697 188.500,244.308 188.500 C 243.919 188.500,243.493 188.399,243.362 188.276 C 243.232 188.152,242.675 187.996,242.125 187.928 C 241.575 187.861,240.450 187.617,239.625 187.387 C 238.800 187.157,237.675 186.870,237.125 186.751 C 234.418 186.161,233.584 185.953,233.125 185.751 C 232.850 185.630,232.231 185.476,231.750 185.409 C 229.954 185.157,226.658 184.115,225.105 183.308 C 224.841 183.171,224.287 182.907,223.875 182.722 C 223.463 182.537,222.777 182.130,222.351 181.818 C 221.926 181.505,221.449 181.250,221.291 181.250 C 220.868 181.250,217.177 177.489,216.813 176.688 C 216.248 175.446,216.041 174.885,215.890 174.188 L 215.740 173.500 199.629 173.500 C 183.956 173.500,183.511 173.513,183.259 173.984 " stroke="none" fill="#dcddde" fill-rule="evenodd"></path></g></svg>