<svg id="svg" version="1.1" width="400" height="400" viewBox="0 0 400 400" xmlns="http://www.w3.org/2000/svg" xmlns:xlink="http://www.w3.org/1999/xlink" ><g id="svgg"><path id="path0" d="M186.600 113.041 C 184.400 113.330,181.100 113.744,179.266 113.962 C 177.433 114.180,175.003 114.542,173.866 114.768 C 172.730 114.994,170.270 115.458,168.400 115.800 C 163.470 116.702,158.603 117.828,155.400 118.807 C 153.860 119.278,151.610 119.933,150.400 120.263 C 149.190 120.593,147.468 121.209,146.574 121.631 C 145.679 122.054,144.599 122.406,144.174 122.413 C 143.748 122.420,143.051 122.690,142.624 123.013 C 142.196 123.336,141.602 123.600,141.302 123.600 C 140.734 123.600,138.713 124.451,134.568 126.436 C 133.231 127.076,131.872 127.600,131.548 127.600 C 131.225 127.600,130.789 127.758,130.580 127.950 C 130.371 128.143,128.130 129.377,125.600 130.693 C 118.813 134.223,114.307 136.783,113.374 137.641 C 112.920 138.058,112.348 138.400,112.103 138.400 C 111.858 138.400,111.419 138.631,111.129 138.914 C 110.838 139.197,109.160 140.387,107.400 141.557 C 105.640 142.728,104.108 143.832,103.996 144.010 C 103.885 144.189,102.535 145.242,100.996 146.350 C 97.727 148.706,95.427 150.672,91.116 154.800 C 89.393 156.450,87.803 157.861,87.583 157.936 C 86.808 158.200,47.220 198.107,46.979 198.868 C 46.841 199.301,47.026 200.086,47.400 200.657 C 48.186 201.856,90.162 243.798,91.848 245.068 C 92.482 245.545,93.990 246.858,95.200 247.986 C 97.383 250.021,101.612 253.409,105.069 255.893 C 106.058 256.605,107.528 257.705,108.334 258.339 C 109.140 258.972,110.340 259.791,111.000 260.157 C 112.441 260.958,113.694 261.768,116.177 263.500 C 117.202 264.215,118.279 264.800,118.571 264.800 C 118.863 264.800,119.339 265.085,119.628 265.434 C 119.917 265.782,121.334 266.684,122.777 267.437 C 124.220 268.189,125.670 268.984,126.000 269.203 C 126.330 269.422,127.050 269.780,127.600 269.999 C 128.150 270.219,128.870 270.548,129.200 270.732 C 130.992 271.728,132.930 272.600,136.112 273.844 C 138.062 274.606,139.960 275.390,140.329 275.586 C 142.354 276.662,147.263 278.481,150.800 279.465 C 152.010 279.801,153.180 280.193,153.400 280.336 C 154.059 280.762,157.322 281.563,158.476 281.582 C 159.068 281.592,159.658 281.770,159.786 281.977 C 159.914 282.184,160.869 282.476,161.909 282.626 C 162.949 282.776,164.394 283.141,165.119 283.437 C 165.845 283.733,168.005 284.165,169.919 284.398 C 171.834 284.630,174.030 284.986,174.800 285.189 C 175.570 285.392,178.180 285.761,180.600 286.010 C 183.020 286.258,186.509 286.718,188.352 287.031 C 193.073 287.832,209.396 287.814,213.321 287.004 C 214.909 286.676,218.277 286.237,220.804 286.029 C 223.332 285.821,226.473 285.369,227.784 285.025 C 229.095 284.681,230.859 284.400,231.704 284.400 C 232.549 284.400,233.726 284.153,234.320 283.852 C 234.914 283.551,236.300 283.184,237.400 283.037 C 239.591 282.745,241.605 282.183,250.600 279.350 C 253.900 278.311,256.955 277.222,257.389 276.930 C 257.823 276.639,258.419 276.400,258.714 276.400 C 259.008 276.400,260.273 275.940,261.525 275.379 C 262.776 274.817,264.340 274.118,265.000 273.824 C 270.314 271.461,274.842 269.270,276.600 268.212 C 277.480 267.682,279.324 266.673,280.698 265.970 C 282.752 264.919,291.390 259.464,294.100 257.506 C 302.958 251.107,308.390 246.212,324.403 230.200 C 330.784 223.820,336.192 218.420,336.420 218.200 C 340.790 213.996,351.278 203.458,352.100 202.445 C 353.928 200.194,353.822 200.022,345.500 191.705 C 341.265 187.473,337.620 183.826,337.400 183.601 C 332.214 178.282,309.439 155.937,307.432 154.198 C 305.910 152.879,303.930 151.167,303.032 150.393 C 302.135 149.619,300.230 148.105,298.800 147.028 C 297.370 145.952,296.020 144.870,295.800 144.624 C 295.405 144.183,293.249 142.689,287.000 138.523 C 285.240 137.350,283.501 136.165,283.135 135.889 C 282.769 135.614,280.699 134.491,278.535 133.394 C 276.371 132.297,274.510 131.284,274.400 131.142 C 274.138 130.803,266.092 127.000,264.800 126.605 C 264.250 126.436,262.648 125.691,261.240 124.949 C 259.832 124.207,258.329 123.600,257.901 123.600 C 257.474 123.600,256.646 123.332,256.062 123.003 C 254.904 122.353,249.005 120.400,248.198 120.400 C 247.923 120.400,247.474 120.130,247.200 119.800 C 246.926 119.470,246.178 119.200,245.538 119.200 C 244.898 119.200,243.286 118.833,241.956 118.385 C 240.626 117.937,238.247 117.303,236.669 116.977 C 230.771 115.756,225.308 114.759,222.400 114.372 C 215.202 113.415,212.879 113.091,211.000 112.785 C 207.894 112.278,191.071 112.455,186.600 113.041 M212.000 135.316 C 212.990 135.662,214.520 136.066,215.400 136.214 C 217.141 136.508,223.533 138.538,224.685 139.162 C 225.078 139.375,226.210 139.901,227.200 140.329 C 231.563 142.219,233.709 143.367,234.373 144.167 C 234.662 144.515,235.082 144.800,235.308 144.800 C 235.533 144.800,236.456 145.400,237.359 146.133 C 238.261 146.867,239.307 147.634,239.683 147.840 C 240.367 148.213,246.272 153.448,246.858 154.200 C 247.029 154.420,248.061 155.590,249.150 156.800 C 251.705 159.638,253.991 162.517,253.996 162.904 C 253.998 163.071,254.615 164.083,255.366 165.152 C 257.320 167.932,260.256 173.558,260.606 175.194 C 260.771 175.961,261.150 176.962,261.449 177.418 C 266.210 184.685,266.759 206.491,262.500 219.200 C 260.545 225.034,260.095 226.225,259.252 227.798 C 258.783 228.673,258.400 229.529,258.400 229.700 C 258.400 229.872,257.796 230.955,257.058 232.106 C 256.319 233.258,255.078 235.190,254.300 236.400 C 253.521 237.610,252.460 239.086,251.942 239.680 C 251.424 240.275,250.106 241.895,249.012 243.280 C 247.919 244.666,246.164 246.520,245.113 247.400 C 244.061 248.280,242.796 249.371,242.300 249.823 C 241.805 250.276,240.680 251.167,239.800 251.802 C 238.920 252.438,238.110 253.058,238.000 253.180 C 237.798 253.405,236.403 254.327,232.400 256.884 C 231.190 257.656,229.528 258.507,228.706 258.773 C 227.884 259.040,227.111 259.421,226.988 259.619 C 226.866 259.817,225.918 260.243,224.883 260.565 C 223.847 260.888,221.740 261.625,220.200 262.204 C 218.660 262.782,216.590 263.423,215.600 263.627 C 214.610 263.831,212.630 264.303,211.200 264.675 C 207.007 265.767,192.593 265.642,187.868 264.473 C 185.926 263.993,183.923 263.600,183.417 263.600 C 182.912 263.600,182.274 263.330,182.000 263.000 C 181.726 262.670,181.022 262.400,180.436 262.400 C 179.849 262.400,178.666 262.042,177.807 261.604 C 176.948 261.166,175.695 260.699,175.022 260.567 C 173.822 260.332,168.852 257.765,165.018 255.400 C 159.530 252.015,153.159 246.192,148.747 240.531 C 143.225 233.444,142.616 232.481,140.329 227.200 C 139.901 226.210,139.375 225.078,139.162 224.685 C 138.528 223.516,136.488 217.155,136.055 215.000 C 135.835 213.900,135.454 212.280,135.211 211.400 C 133.986 206.982,134.368 190.058,135.780 186.200 C 136.101 185.320,136.373 184.010,136.382 183.288 C 136.399 182.028,137.784 178.159,139.013 175.938 C 139.336 175.354,139.600 174.668,139.600 174.414 C 139.600 173.749,141.651 169.498,142.274 168.871 C 142.564 168.581,142.800 168.131,142.801 167.871 C 142.801 167.612,143.521 166.363,144.401 165.096 C 145.280 163.828,146.000 162.705,146.000 162.599 C 146.000 162.026,152.713 154.227,155.123 152.000 C 159.124 148.302,166.704 142.839,167.871 142.811 C 168.131 142.805,168.581 142.564,168.871 142.274 C 169.538 141.611,173.768 139.600,174.495 139.600 C 174.795 139.600,175.211 139.439,175.420 139.241 C 176.124 138.576,182.051 136.400,183.158 136.400 C 183.761 136.400,185.232 136.101,186.427 135.736 C 191.119 134.302,208.286 134.020,212.000 135.316 M190.600 156.795 C 185.962 157.541,182.524 158.346,181.400 158.950 C 180.740 159.305,179.951 159.596,179.647 159.598 C 175.784 159.615,162.670 171.927,161.043 177.064 C 160.892 177.539,160.506 178.146,160.185 178.413 C 159.863 178.680,159.594 179.191,159.586 179.549 C 159.579 179.907,159.225 180.920,158.800 181.800 C 158.375 182.680,158.019 183.760,158.009 184.200 C 157.999 184.640,157.726 185.990,157.404 187.200 C 155.526 194.242,157.293 199.200,161.681 199.200 C 164.918 199.200,166.518 196.806,167.181 190.973 C 167.544 187.779,168.609 184.058,169.635 182.400 C 169.839 182.070,170.224 181.350,170.490 180.800 C 171.982 177.717,177.777 171.917,180.800 170.481 C 181.350 170.220,182.070 169.839,182.400 169.635 C 184.005 168.641,187.738 167.556,190.800 167.192 C 197.986 166.339,200.767 163.803,198.798 159.899 C 197.294 156.916,195.074 156.075,190.600 156.795 " stroke="none" fill="#ececec" fill-rule="evenodd"></path><path id="path1" d="M0.000 200.000 L 0.000 400.000 200.000 400.000 L 400.000 400.000 400.000 200.000 L 400.000 0.000 200.000 0.000 L 0.000 0.000 0.000 200.000 M218.000 112.507 C 218.778 112.853,221.574 113.299,224.297 113.513 C 226.990 113.724,229.445 114.105,229.751 114.359 C 230.057 114.613,231.544 114.932,233.054 115.067 C 234.564 115.201,236.258 115.542,236.817 115.823 C 237.376 116.104,238.996 116.545,240.417 116.802 C 241.838 117.060,243.180 117.418,243.400 117.599 C 243.620 117.780,244.520 118.047,245.400 118.193 C 246.280 118.339,247.360 118.620,247.800 118.820 C 249.091 119.404,254.080 121.214,255.600 121.650 C 256.370 121.871,257.567 122.310,258.260 122.626 C 258.954 122.942,259.795 123.200,260.129 123.200 C 260.464 123.200,262.244 123.965,264.087 124.900 C 265.929 125.835,268.508 127.035,269.818 127.568 C 271.128 128.100,272.470 128.754,272.800 129.020 C 273.130 129.287,273.850 129.638,274.400 129.800 C 274.950 129.962,275.716 130.372,276.103 130.712 C 276.941 131.448,278.231 132.212,279.600 132.783 C 280.150 133.012,280.870 133.368,281.200 133.574 C 281.530 133.780,283.214 134.784,284.943 135.805 C 286.671 136.825,289.041 138.412,290.208 139.330 C 291.376 140.249,293.202 141.528,294.266 142.174 C 295.330 142.819,297.079 144.071,298.152 144.955 C 299.226 145.839,300.702 147.021,301.433 147.581 C 308.749 153.195,354.400 198.614,354.400 200.280 C 354.400 201.773,353.911 202.429,349.789 206.458 C 345.937 210.224,343.480 212.692,336.800 219.500 C 334.803 221.535,333.091 223.200,332.995 223.200 C 332.899 223.200,331.601 224.476,330.110 226.036 C 323.883 232.552,311.254 244.876,308.217 247.400 C 306.474 248.849,304.462 250.604,301.685 253.100 C 301.134 253.595,300.549 254.000,300.386 254.000 C 300.222 254.000,299.393 254.621,298.544 255.381 C 297.695 256.141,296.550 256.995,296.000 257.280 C 295.450 257.565,294.856 258.024,294.680 258.299 C 294.504 258.575,294.173 258.800,293.943 258.800 C 293.538 258.800,292.867 259.273,289.637 261.835 C 288.781 262.514,287.477 263.314,286.740 263.612 C 286.003 263.910,285.310 264.272,285.200 264.416 C 285.090 264.559,283.200 265.617,281.000 266.766 C 278.800 267.914,276.628 269.202,276.174 269.627 C 275.720 270.052,275.067 270.400,274.723 270.400 C 274.379 270.400,273.874 270.670,273.600 271.000 C 273.326 271.330,272.919 271.600,272.695 271.600 C 272.471 271.600,271.548 271.947,270.644 272.371 C 265.539 274.764,262.490 276.106,260.470 276.849 C 252.200 279.892,249.116 280.968,247.000 281.553 C 245.680 281.917,244.406 282.338,244.168 282.489 C 243.931 282.640,242.510 282.959,241.010 283.198 C 239.511 283.438,237.988 283.793,237.625 283.986 C 237.263 284.180,235.452 284.546,233.600 284.800 C 231.748 285.054,229.922 285.428,229.540 285.632 C 229.159 285.836,226.542 286.270,223.724 286.596 C 220.906 286.922,217.880 287.390,217.000 287.637 C 212.853 288.798,182.949 288.412,182.192 287.187 C 182.085 287.014,180.423 286.749,178.499 286.600 C 176.574 286.451,173.839 286.069,172.420 285.752 C 171.001 285.434,168.595 284.998,167.074 284.782 C 165.552 284.566,164.103 284.257,163.853 284.095 C 163.396 283.798,159.515 282.816,154.900 281.831 C 153.524 281.537,152.174 281.114,151.900 280.891 C 151.625 280.667,150.410 280.213,149.200 279.881 C 146.526 279.147,143.645 278.134,142.705 277.597 C 142.323 277.379,141.776 277.200,141.490 277.200 C 141.204 277.200,140.256 276.832,139.385 276.382 C 138.513 275.932,136.630 275.103,135.200 274.540 C 132.167 273.345,128.624 271.633,125.800 269.998 C 124.700 269.361,122.720 268.282,121.400 267.599 C 117.101 265.375,106.006 258.307,104.000 256.513 C 103.670 256.218,102.817 255.442,102.104 254.788 C 101.391 254.135,100.671 253.596,100.504 253.591 C 100.337 253.586,99.544 253.001,98.741 252.291 C 97.939 251.581,96.859 250.646,96.341 250.214 C 95.824 249.782,94.230 248.450,92.800 247.253 C 90.170 245.052,73.114 228.231,58.285 213.212 C 53.838 208.709,49.165 204.023,47.900 202.799 C 44.170 199.188,42.680 201.219,66.300 177.717 C 77.685 166.389,87.124 157.003,87.276 156.860 C 87.428 156.717,88.508 155.640,89.676 154.466 C 92.467 151.662,92.996 151.202,93.434 151.192 C 93.635 151.188,94.716 150.333,95.835 149.292 C 96.954 148.251,98.282 147.130,98.784 146.800 C 99.287 146.470,100.441 145.511,101.349 144.669 C 102.257 143.826,103.495 142.877,104.100 142.558 C 104.705 142.240,105.200 141.824,105.200 141.633 C 105.200 141.443,105.650 141.174,106.200 141.036 C 106.750 140.898,107.200 140.608,107.200 140.392 C 107.200 140.177,107.408 140.000,107.662 140.000 C 107.916 140.000,108.714 139.550,109.436 139.000 C 110.157 138.450,110.868 138.000,111.016 138.000 C 111.163 138.000,111.819 137.550,112.473 137.000 C 113.127 136.450,113.898 136.000,114.188 136.000 C 114.477 136.000,114.818 135.730,114.945 135.400 C 115.071 135.070,115.438 134.800,115.759 134.800 C 116.080 134.800,116.582 134.561,116.875 134.268 C 117.457 133.686,118.904 132.859,121.456 131.650 C 122.367 131.219,123.224 130.685,123.361 130.464 C 123.497 130.243,124.128 129.947,124.763 129.808 C 125.398 129.669,126.234 129.205,126.621 128.777 C 127.007 128.350,127.616 128.000,127.973 128.000 C 128.330 128.000,128.977 127.754,129.411 127.454 C 129.845 127.154,130.650 126.778,131.200 126.619 C 131.750 126.460,133.640 125.644,135.400 124.805 C 139.588 122.809,142.597 121.600,143.376 121.600 C 143.721 121.600,144.675 121.240,145.496 120.800 C 146.316 120.360,147.443 120.000,148.000 120.000 C 148.557 120.000,149.660 119.653,150.452 119.228 C 151.244 118.804,152.591 118.330,153.446 118.176 C 154.301 118.022,155.180 117.755,155.400 117.583 C 155.620 117.411,156.965 117.059,158.390 116.801 C 159.814 116.543,161.285 116.168,161.659 115.968 C 162.034 115.768,163.748 115.410,165.470 115.173 C 167.191 114.936,168.960 114.576,169.400 114.374 C 170.161 114.025,178.602 112.709,184.600 112.005 C 189.799 111.395,216.395 111.795,218.000 112.507 " stroke="none" fill="#ff5c3b" fill-rule="evenodd"></path><path id="path2" d="M195.400 135.628 C 192.980 135.754,190.406 136.059,189.680 136.306 C 188.955 136.553,187.065 136.883,185.480 137.039 C 183.746 137.210,182.435 137.547,182.186 137.888 C 181.958 138.199,180.968 138.555,179.986 138.679 C 179.004 138.803,177.918 139.149,177.574 139.448 C 177.229 139.746,176.329 140.111,175.574 140.257 C 174.818 140.404,173.771 140.856,173.246 141.262 C 172.721 141.668,171.981 142.000,171.600 142.000 C 171.219 142.000,170.477 142.315,169.949 142.700 C 168.446 143.798,167.498 144.371,166.168 144.985 C 165.491 145.298,164.704 145.834,164.419 146.177 C 164.135 146.520,163.718 146.800,163.494 146.800 C 163.270 146.800,162.077 147.654,160.843 148.698 C 159.609 149.742,158.365 150.777,158.079 150.998 C 154.935 153.425,148.850 160.378,146.001 164.800 C 145.789 165.130,145.161 166.083,144.607 166.918 C 144.053 167.753,143.600 168.580,143.600 168.756 C 143.600 168.932,143.240 169.402,142.800 169.800 C 142.360 170.198,141.999 170.901,141.997 171.362 C 141.996 171.823,141.637 172.740,141.200 173.400 C 140.763 174.060,140.404 174.873,140.403 175.206 C 140.401 175.539,140.068 176.439,139.662 177.206 C 139.255 177.973,138.813 179.297,138.679 180.150 C 138.544 181.002,138.186 181.992,137.883 182.350 C 137.579 182.707,137.127 184.595,136.877 186.545 C 136.628 188.494,136.256 190.294,136.050 190.545 C 134.419 192.534,135.864 212.832,137.907 216.631 C 138.153 217.088,138.477 218.390,138.628 219.524 C 138.778 220.658,139.144 221.787,139.440 222.033 C 139.736 222.279,140.096 223.137,140.240 223.940 C 140.384 224.743,140.735 225.670,141.020 226.000 C 141.304 226.330,141.671 227.140,141.835 227.800 C 142.127 228.982,142.929 230.306,144.700 232.531 C 145.195 233.153,145.600 233.988,145.600 234.388 C 145.600 234.787,145.870 235.218,146.200 235.345 C 146.530 235.471,146.800 235.790,146.800 236.054 C 146.800 236.317,147.067 236.818,147.394 237.166 C 147.720 237.515,149.164 239.240,150.603 241.000 C 153.561 244.620,157.060 248.400,157.452 248.400 C 157.596 248.400,158.662 249.210,159.821 250.200 C 160.979 251.190,162.027 252.000,162.148 252.000 C 162.270 252.000,163.861 253.019,165.685 254.265 C 167.508 255.511,169.883 256.856,170.961 257.253 C 172.040 257.651,173.300 258.319,173.761 258.739 C 174.223 259.158,175.320 259.627,176.200 259.780 C 177.080 259.934,178.163 260.292,178.606 260.577 C 179.049 260.862,180.039 261.218,180.806 261.369 C 181.573 261.520,182.830 261.900,183.600 262.214 C 187.562 263.830,205.220 265.143,207.955 264.024 C 208.530 263.789,210.405 263.420,212.122 263.205 C 213.840 262.990,215.633 262.542,216.108 262.209 C 216.583 261.877,217.848 261.489,218.920 261.346 C 219.991 261.204,220.954 260.865,221.058 260.592 C 221.163 260.320,222.130 259.980,223.208 259.837 C 224.285 259.694,225.286 259.384,225.432 259.149 C 225.577 258.913,226.769 258.213,228.081 257.593 C 229.392 256.973,230.765 256.202,231.132 255.880 C 231.500 255.558,232.224 255.165,232.741 255.007 C 234.823 254.372,242.595 248.301,246.389 244.347 C 250.008 240.575,254.594 234.358,255.026 232.640 C 255.165 232.086,255.527 231.427,255.830 231.175 C 256.133 230.924,256.918 229.582,257.574 228.193 C 258.230 226.804,258.939 225.561,259.149 225.432 C 259.359 225.302,259.656 224.432,259.809 223.498 C 259.962 222.564,260.314 221.530,260.590 221.200 C 260.867 220.870,261.217 219.790,261.367 218.800 C 261.517 217.810,261.893 216.613,262.203 216.141 C 262.512 215.668,262.948 213.820,263.172 212.034 C 263.396 210.248,263.764 208.441,263.990 208.019 C 265.269 205.628,264.099 190.173,262.161 183.875 C 261.633 182.157,261.200 180.424,261.200 180.024 C 261.200 179.625,260.946 179.087,260.635 178.829 C 260.324 178.571,259.947 177.469,259.797 176.380 C 259.648 175.292,259.358 174.298,259.154 174.171 C 258.949 174.045,258.158 172.678,257.395 171.134 C 256.631 169.590,255.447 167.497,254.763 166.484 C 254.079 165.470,253.362 164.227,253.170 163.720 C 252.977 163.214,252.635 162.800,252.410 162.800 C 252.184 162.800,252.000 162.524,252.000 162.187 C 252.000 161.851,251.738 161.474,251.418 161.352 C 251.099 161.229,250.473 160.560,250.028 159.864 C 249.583 159.169,248.989 158.262,248.709 157.849 C 247.898 156.654,245.164 153.953,242.789 152.000 C 241.585 151.010,240.150 149.791,239.600 149.290 C 239.050 148.790,237.880 147.890,237.000 147.290 C 236.120 146.691,235.340 146.065,235.267 145.900 C 235.193 145.735,234.948 145.600,234.721 145.600 C 234.494 145.600,233.024 144.802,231.454 143.828 C 229.884 142.853,228.112 141.935,227.516 141.788 C 226.920 141.642,226.223 141.269,225.967 140.961 C 225.711 140.652,225.119 140.399,224.651 140.399 C 224.183 140.398,223.254 140.064,222.586 139.657 C 221.919 139.250,220.479 138.786,219.386 138.627 C 218.294 138.468,217.040 138.109,216.600 137.830 C 216.160 137.551,214.837 137.196,213.661 137.042 C 212.484 136.888,210.864 136.514,210.061 136.210 C 208.357 135.566,201.694 135.302,195.400 135.628 M198.830 157.485 C 203.017 161.977,199.900 167.563,193.018 167.899 C 191.183 167.989,189.027 168.369,188.000 168.785 C 187.010 169.186,185.449 169.637,184.531 169.787 C 183.614 169.937,182.764 170.316,182.644 170.630 C 182.524 170.943,182.227 171.200,181.986 171.200 C 181.744 171.200,180.957 171.650,180.236 172.200 C 179.514 172.750,178.794 173.200,178.635 173.200 C 178.476 173.200,177.752 173.830,177.026 174.600 C 176.300 175.370,175.531 176.000,175.317 176.000 C 174.873 176.000,171.854 180.570,171.443 181.865 C 171.293 182.339,170.928 182.819,170.632 182.932 C 170.336 183.046,169.869 184.097,169.594 185.269 C 169.318 186.441,168.847 187.886,168.546 188.480 C 168.234 189.097,168.000 190.802,168.000 192.454 C 168.000 199.548,162.090 203.129,157.485 198.826 L 155.800 197.252 155.814 191.653 C 155.825 187.093,155.947 185.919,156.470 185.327 C 156.824 184.927,157.242 183.790,157.400 182.800 C 157.558 181.810,157.917 180.730,158.199 180.400 C 158.481 180.070,158.832 179.230,158.980 178.533 C 159.128 177.837,159.491 177.174,159.787 177.060 C 160.083 176.947,160.443 176.314,160.588 175.655 C 160.733 174.995,161.110 174.241,161.426 173.979 C 161.742 173.717,162.000 173.264,162.000 172.974 C 162.000 172.683,162.333 172.210,162.740 171.923 C 163.148 171.635,163.779 170.821,164.144 170.113 C 164.790 168.860,166.986 166.440,168.630 165.170 C 171.271 163.130,174.897 160.791,175.751 160.577 C 176.296 160.440,176.833 160.091,176.944 159.802 C 177.055 159.512,177.733 159.147,178.450 158.989 C 179.168 158.831,179.992 158.465,180.282 158.175 C 180.572 157.885,181.662 157.524,182.705 157.373 C 183.747 157.222,184.834 156.912,185.121 156.683 C 186.033 155.955,188.476 155.657,192.930 155.729 L 197.259 155.800 198.830 157.485 " stroke="none" fill="#00bff3" fill-rule="evenodd"></path><path id="path3" d="M184.600 112.005 C 178.602 112.709,170.161 114.025,169.400 114.374 C 168.960 114.576,167.191 114.936,165.470 115.173 C 163.748 115.410,162.034 115.768,161.659 115.968 C 161.285 116.168,159.814 116.543,158.390 116.801 C 156.965 117.059,155.620 117.411,155.400 117.583 C 155.180 117.755,154.301 118.022,153.446 118.176 C 152.591 118.330,151.244 118.804,150.452 119.228 C 149.660 119.653,148.557 120.000,148.000 120.000 C 147.443 120.000,146.316 120.360,145.496 120.800 C 144.675 121.240,143.721 121.600,143.376 121.600 C 142.597 121.600,139.588 122.809,135.400 124.805 C 133.640 125.644,131.750 126.460,131.200 126.619 C 130.650 126.778,129.845 127.154,129.411 127.454 C 128.977 127.754,128.330 128.000,127.973 128.000 C 127.616 128.000,127.007 128.350,126.621 128.777 C 126.234 129.205,125.398 129.669,124.763 129.808 C 124.128 129.947,123.497 130.243,123.361 130.464 C 123.224 130.685,122.367 131.219,121.456 131.650 C 118.904 132.859,117.457 133.686,116.875 134.268 C 116.582 134.561,116.080 134.800,115.759 134.800 C 115.438 134.800,115.071 135.070,114.945 135.400 C 114.818 135.730,114.477 136.000,114.188 136.000 C 113.898 136.000,113.127 136.450,112.473 137.000 C 111.819 137.550,111.163 138.000,111.016 138.000 C 110.868 138.000,110.157 138.450,109.436 139.000 C 108.714 139.550,107.916 140.000,107.662 140.000 C 107.408 140.000,107.200 140.177,107.200 140.392 C 107.200 140.608,106.750 140.898,106.200 141.036 C 105.650 141.174,105.200 141.443,105.200 141.633 C 105.200 141.824,104.705 142.240,104.100 142.558 C 103.495 142.877,102.257 143.826,101.349 144.669 C 100.441 145.511,99.287 146.470,98.784 146.800 C 98.282 147.130,96.954 148.251,95.835 149.292 C 94.716 150.333,93.635 151.188,93.434 151.192 C 92.996 151.202,92.467 151.662,89.676 154.466 C 88.508 155.640,87.428 156.717,87.276 156.860 C 87.124 157.003,77.685 166.389,66.300 177.717 C 42.680 201.219,44.170 199.188,47.900 202.799 C 49.165 204.023,53.838 208.709,58.285 213.212 C 73.114 228.231,90.170 245.052,92.800 247.253 C 94.230 248.450,95.824 249.782,96.341 250.214 C 96.859 250.646,97.939 251.581,98.741 252.291 C 99.544 253.001,100.337 253.586,100.504 253.591 C 100.671 253.596,101.391 254.135,102.104 254.788 C 102.817 255.442,103.670 256.218,104.000 256.513 C 106.006 258.307,117.101 265.375,121.400 267.599 C 122.720 268.282,124.700 269.361,125.800 269.998 C 128.624 271.633,132.167 273.345,135.200 274.540 C 136.630 275.103,138.513 275.932,139.385 276.382 C 140.256 276.832,141.204 277.200,141.490 277.200 C 141.776 277.200,142.323 277.379,142.705 277.597 C 143.645 278.134,146.526 279.147,149.200 279.881 C 150.410 280.213,151.625 280.667,151.900 280.891 C 152.174 281.114,153.524 281.537,154.900 281.831 C 159.515 282.816,163.396 283.798,163.853 284.095 C 164.103 284.257,165.552 284.566,167.074 284.782 C 168.595 284.998,171.001 285.434,172.420 285.752 C 173.839 286.069,176.574 286.451,178.499 286.600 C 180.423 286.749,182.085 287.014,182.192 287.187 C 182.949 288.412,212.853 288.798,217.000 287.637 C 217.880 287.390,220.906 286.922,223.724 286.596 C 226.542 286.270,229.159 285.836,229.540 285.632 C 229.922 285.428,231.748 285.054,233.600 284.800 C 235.452 284.546,237.263 284.180,237.625 283.986 C 237.988 283.793,239.511 283.438,241.010 283.198 C 242.510 282.959,243.931 282.640,244.168 282.489 C 244.406 282.338,245.680 281.917,247.000 281.553 C 249.116 280.968,252.200 279.892,260.470 276.849 C 262.490 276.106,265.539 274.764,270.644 272.371 C 271.548 271.947,272.471 271.600,272.695 271.600 C 272.919 271.600,273.326 271.330,273.600 271.000 C 273.874 270.670,274.379 270.400,274.723 270.400 C 275.067 270.400,275.720 270.052,276.174 269.627 C 276.628 269.202,278.800 267.914,281.000 266.766 C 283.200 265.617,285.090 264.559,285.200 264.416 C 285.310 264.272,286.003 263.910,286.740 263.612 C 287.477 263.314,288.781 262.514,289.637 261.835 C 292.867 259.273,293.538 258.800,293.943 258.800 C 294.173 258.800,294.504 258.575,294.680 258.299 C 294.856 258.024,295.450 257.565,296.000 257.280 C 296.550 256.995,297.695 256.141,298.544 255.381 C 299.393 254.621,300.222 254.000,300.386 254.000 C 300.549 254.000,301.134 253.595,301.685 253.100 C 304.462 250.604,306.474 248.849,308.217 247.400 C 311.254 244.876,323.883 232.552,330.110 226.036 C 331.601 224.476,332.899 223.200,332.995 223.200 C 333.091 223.200,334.803 221.535,336.800 219.500 C 343.480 212.692,345.937 210.224,349.789 206.458 C 353.911 202.429,354.400 201.773,354.400 200.280 C 354.400 198.614,308.749 153.195,301.433 147.581 C 300.702 147.021,299.226 145.839,298.152 144.955 C 297.079 144.071,295.330 142.819,294.266 142.174 C 293.202 141.528,291.376 140.249,290.208 139.330 C 289.041 138.412,286.671 136.825,284.943 135.805 C 283.214 134.784,281.530 133.780,281.200 133.574 C 280.870 133.368,280.150 133.012,279.600 132.783 C 278.231 132.212,276.941 131.448,276.103 130.712 C 275.716 130.372,274.950 129.962,274.400 129.800 C 273.850 129.638,273.130 129.287,272.800 129.020 C 272.470 128.754,271.128 128.100,269.818 127.568 C 268.508 127.035,265.929 125.835,264.087 124.900 C 262.244 123.965,260.464 123.200,260.129 123.200 C 259.795 123.200,258.954 122.942,258.260 122.626 C 257.567 122.310,256.370 121.871,255.600 121.650 C 254.080 121.214,249.091 119.404,247.800 118.820 C 247.360 118.620,246.280 118.339,245.400 118.193 C 244.520 118.047,243.620 117.780,243.400 117.599 C 243.180 117.418,241.838 117.060,240.417 116.802 C 238.996 116.545,237.376 116.104,236.817 115.823 C 236.258 115.542,234.564 115.201,233.054 115.067 C 231.544 114.932,230.057 114.613,229.751 114.359 C 229.445 114.105,226.990 113.724,224.297 113.513 C 221.574 113.299,218.778 112.853,218.000 112.507 C 216.395 111.795,189.799 111.395,184.600 112.005 M211.000 112.785 C 212.879 113.091,215.202 113.415,222.400 114.372 C 225.308 114.759,230.771 115.756,236.669 116.977 C 238.247 117.303,240.626 117.937,241.956 118.385 C 243.286 118.833,244.898 119.200,245.538 119.200 C 246.178 119.200,246.926 119.470,247.200 119.800 C 247.474 120.130,247.923 120.400,248.198 120.400 C 249.005 120.400,254.904 122.353,256.062 123.003 C 256.646 123.332,257.474 123.600,257.901 123.600 C 258.329 123.600,259.832 124.207,261.240 124.949 C 262.648 125.691,264.250 126.436,264.800 126.605 C 266.092 127.000,274.138 130.803,274.400 131.142 C 274.510 131.284,276.371 132.297,278.535 133.394 C 280.699 134.491,282.769 135.614,283.135 135.889 C 283.501 136.165,285.240 137.350,287.000 138.523 C 293.249 142.689,295.405 144.183,295.800 144.624 C 296.020 144.870,297.370 145.952,298.800 147.028 C 300.230 148.105,302.135 149.619,303.032 150.393 C 303.930 151.167,305.910 152.879,307.432 154.198 C 309.439 155.937,332.214 178.282,337.400 183.601 C 337.620 183.826,341.265 187.473,345.500 191.705 C 353.822 200.022,353.928 200.194,352.100 202.445 C 351.278 203.458,340.790 213.996,336.420 218.200 C 336.192 218.420,330.784 223.820,324.403 230.200 C 308.390 246.212,302.958 251.107,294.100 257.506 C 291.390 259.464,282.752 264.919,280.698 265.970 C 279.324 266.673,277.480 267.682,276.600 268.212 C 274.842 269.270,270.314 271.461,265.000 273.824 C 264.340 274.118,262.776 274.817,261.525 275.379 C 260.273 275.940,259.008 276.400,258.714 276.400 C 258.419 276.400,257.823 276.639,257.389 276.930 C 256.955 277.222,253.900 278.311,250.600 279.350 C 241.605 282.183,239.591 282.745,237.400 283.037 C 236.300 283.184,234.914 283.551,234.320 283.852 C 233.726 284.153,232.549 284.400,231.704 284.400 C 230.859 284.400,229.095 284.681,227.784 285.025 C 226.473 285.369,223.332 285.821,220.804 286.029 C 218.277 286.237,214.909 286.676,213.321 287.004 C 209.396 287.814,193.073 287.832,188.352 287.031 C 186.509 286.718,183.020 286.258,180.600 286.010 C 178.180 285.761,175.570 285.392,174.800 285.189 C 174.030 284.986,171.834 284.630,169.919 284.398 C 168.005 284.165,165.845 283.733,165.119 283.437 C 164.394 283.141,162.949 282.776,161.909 282.626 C 160.869 282.476,159.914 282.184,159.786 281.977 C 159.658 281.770,159.068 281.592,158.476 281.582 C 157.322 281.563,154.059 280.762,153.400 280.336 C 153.180 280.193,152.010 279.801,150.800 279.465 C 147.263 278.481,142.354 276.662,140.329 275.586 C 139.960 275.390,138.062 274.606,136.112 273.844 C 132.930 272.600,130.992 271.728,129.200 270.732 C 128.870 270.548,128.150 270.219,127.600 269.999 C 127.050 269.780,126.330 269.422,126.000 269.203 C 125.670 268.984,124.220 268.189,122.777 267.437 C 121.334 266.684,119.917 265.782,119.628 265.434 C 119.339 265.085,118.863 264.800,118.571 264.800 C 118.279 264.800,117.202 264.215,116.177 263.500 C 113.694 261.768,112.441 260.958,111.000 260.157 C 110.340 259.791,109.140 258.972,108.334 258.339 C 107.528 257.705,106.058 256.605,105.069 255.893 C 101.612 253.409,97.383 250.021,95.200 247.986 C 93.990 246.858,92.482 245.545,91.848 245.068 C 90.162 243.798,48.186 201.856,47.400 200.657 C 47.026 200.086,46.841 199.301,46.979 198.868 C 47.220 198.107,86.808 158.200,87.583 157.936 C 87.803 157.861,89.393 156.450,91.116 154.800 C 95.427 150.672,97.727 148.706,100.996 146.350 C 102.535 145.242,103.885 144.189,103.996 144.010 C 104.108 143.832,105.640 142.728,107.400 141.557 C 109.160 140.387,110.838 139.197,111.129 138.914 C 111.419 138.631,111.858 138.400,112.103 138.400 C 112.348 138.400,112.920 138.058,113.374 137.641 C 114.307 136.783,118.813 134.223,125.600 130.693 C 128.130 129.377,130.371 128.143,130.580 127.950 C 130.789 127.758,131.225 127.600,131.548 127.600 C 131.872 127.600,133.231 127.076,134.568 126.436 C 138.713 124.451,140.734 123.600,141.302 123.600 C 141.602 123.600,142.196 123.336,142.624 123.013 C 143.051 122.690,143.748 122.420,144.174 122.413 C 144.599 122.406,145.679 122.054,146.574 121.631 C 147.468 121.209,149.190 120.593,150.400 120.263 C 151.610 119.933,153.860 119.278,155.400 118.807 C 158.603 117.828,163.470 116.702,168.400 115.800 C 170.270 115.458,172.730 114.994,173.866 114.768 C 175.003 114.542,177.433 114.180,179.266 113.962 C 181.100 113.744,184.400 113.330,186.600 113.041 C 191.071 112.455,207.894 112.278,211.000 112.785 " stroke="none" fill="#f6807b" fill-rule="evenodd"></path><path id="path4" d="M191.400 134.770 C 189.860 134.936,187.622 135.371,186.427 135.736 C 185.232 136.101,183.761 136.400,183.158 136.400 C 182.051 136.400,176.124 138.576,175.420 139.241 C 175.211 139.439,174.795 139.600,174.495 139.600 C 173.768 139.600,169.538 141.611,168.871 142.274 C 168.581 142.564,168.131 142.805,167.871 142.811 C 166.704 142.839,159.124 148.302,155.123 152.000 C 152.713 154.227,146.000 162.026,146.000 162.599 C 146.000 162.705,145.280 163.828,144.401 165.096 C 143.521 166.363,142.801 167.612,142.801 167.871 C 142.800 168.131,142.564 168.581,142.274 168.871 C 141.651 169.498,139.600 173.749,139.600 174.414 C 139.600 174.668,139.336 175.354,139.013 175.938 C 137.784 178.159,136.399 182.028,136.382 183.288 C 136.373 184.010,136.101 185.320,135.780 186.200 C 134.368 190.058,133.986 206.982,135.211 211.400 C 135.454 212.280,135.835 213.900,136.055 215.000 C 136.488 217.155,138.528 223.516,139.162 224.685 C 139.375 225.078,139.901 226.210,140.329 227.200 C 142.616 232.481,143.225 233.444,148.747 240.531 C 153.159 246.192,159.530 252.015,165.018 255.400 C 168.852 257.765,173.822 260.332,175.022 260.567 C 175.695 260.699,176.948 261.166,177.807 261.604 C 178.666 262.042,179.849 262.400,180.436 262.400 C 181.022 262.400,181.726 262.670,182.000 263.000 C 182.274 263.330,182.912 263.600,183.417 263.600 C 183.923 263.600,185.926 263.993,187.868 264.473 C 192.593 265.642,207.007 265.767,211.200 264.675 C 212.630 264.303,214.610 263.831,215.600 263.627 C 216.590 263.423,218.660 262.782,220.200 262.204 C 221.740 261.625,223.847 260.888,224.883 260.565 C 225.918 260.243,226.866 259.817,226.988 259.619 C 227.111 259.421,227.884 259.040,228.706 258.773 C 229.528 258.507,231.190 257.656,232.400 256.884 C 236.403 254.327,237.798 253.405,238.000 253.180 C 238.110 253.058,238.920 252.438,239.800 251.802 C 240.680 251.167,241.805 250.276,242.300 249.823 C 242.796 249.371,244.061 248.280,245.113 247.400 C 246.164 246.520,247.919 244.666,249.012 243.280 C 250.106 241.895,251.424 240.275,251.942 239.680 C 252.460 239.086,253.521 237.610,254.300 236.400 C 255.078 235.190,256.319 233.258,257.058 232.106 C 257.796 230.955,258.400 229.872,258.400 229.700 C 258.400 229.529,258.783 228.673,259.252 227.798 C 261.914 222.832,264.633 212.886,265.266 205.800 C 266.126 196.163,264.162 181.559,261.449 177.418 C 261.150 176.962,260.771 175.961,260.606 175.194 C 260.256 173.558,257.320 167.932,255.366 165.152 C 254.615 164.083,253.998 163.071,253.996 162.904 C 253.991 162.517,251.705 159.638,249.150 156.800 C 248.061 155.590,247.029 154.420,246.858 154.200 C 246.272 153.448,240.367 148.213,239.683 147.840 C 239.307 147.634,238.261 146.867,237.359 146.133 C 236.456 145.400,235.533 144.800,235.308 144.800 C 235.082 144.800,234.662 144.515,234.373 144.167 C 233.709 143.367,231.563 142.219,227.200 140.329 C 226.210 139.901,225.078 139.375,224.685 139.162 C 223.533 138.538,217.141 136.508,215.400 136.214 C 214.520 136.066,212.990 135.662,212.000 135.316 C 209.954 134.602,196.318 134.241,191.400 134.770 M210.061 136.210 C 210.864 136.514,212.484 136.888,213.661 137.042 C 214.837 137.196,216.160 137.551,216.600 137.830 C 217.040 138.109,218.294 138.468,219.386 138.627 C 220.479 138.786,221.919 139.250,222.586 139.657 C 223.254 140.064,224.183 140.398,224.651 140.399 C 225.119 140.399,225.711 140.652,225.967 140.961 C 226.223 141.269,226.920 141.642,227.516 141.788 C 228.112 141.935,229.884 142.853,231.454 143.828 C 233.024 144.802,234.494 145.600,234.721 145.600 C 234.948 145.600,235.193 145.735,235.267 145.900 C 235.340 146.065,236.120 146.691,237.000 147.290 C 237.880 147.890,239.050 148.790,239.600 149.290 C 240.150 149.791,241.585 151.010,242.789 152.000 C 245.164 153.953,247.898 156.654,248.709 157.849 C 248.989 158.262,249.583 159.169,250.028 159.864 C 250.473 160.560,251.099 161.229,251.418 161.352 C 251.738 161.474,252.000 161.851,252.000 162.187 C 252.000 162.524,252.184 162.800,252.410 162.800 C 252.635 162.800,252.977 163.214,253.170 163.720 C 253.362 164.227,254.079 165.470,254.763 166.484 C 255.447 167.497,256.631 169.590,257.395 171.134 C 258.158 172.678,258.949 174.045,259.154 174.171 C 259.358 174.298,259.648 175.292,259.797 176.380 C 259.947 177.469,260.324 178.571,260.635 178.829 C 260.946 179.087,261.200 179.625,261.200 180.024 C 261.200 180.424,261.633 182.157,262.161 183.875 C 264.099 190.173,265.269 205.628,263.990 208.019 C 263.764 208.441,263.396 210.248,263.172 212.034 C 262.948 213.820,262.512 215.668,262.203 216.141 C 261.893 216.613,261.517 217.810,261.367 218.800 C 261.217 219.790,260.867 220.870,260.590 221.200 C 260.314 221.530,259.962 222.564,259.809 223.498 C 259.656 224.432,259.359 225.302,259.149 225.432 C 258.939 225.561,258.230 226.804,257.574 228.193 C 256.918 229.582,256.133 230.924,255.830 231.175 C 255.527 231.427,255.165 232.086,255.026 232.640 C 254.594 234.358,250.008 240.575,246.389 244.347 C 242.595 248.301,234.823 254.372,232.741 255.007 C 232.224 255.165,231.500 255.558,231.132 255.880 C 230.765 256.202,229.392 256.973,228.081 257.593 C 226.769 258.213,225.577 258.913,225.432 259.149 C 225.286 259.384,224.285 259.694,223.208 259.837 C 222.130 259.980,221.163 260.320,221.058 260.592 C 220.954 260.865,219.991 261.204,218.920 261.346 C 217.848 261.489,216.583 261.877,216.108 262.209 C 215.633 262.542,213.840 262.990,212.122 263.205 C 210.405 263.420,208.530 263.789,207.955 264.024 C 205.220 265.143,187.562 263.830,183.600 262.214 C 182.830 261.900,181.573 261.520,180.806 261.369 C 180.039 261.218,179.049 260.862,178.606 260.577 C 178.163 260.292,177.080 259.934,176.200 259.780 C 175.320 259.627,174.223 259.158,173.761 258.739 C 173.300 258.319,172.040 257.651,170.961 257.253 C 169.883 256.856,167.508 255.511,165.685 254.265 C 163.861 253.019,162.270 252.000,162.148 252.000 C 162.027 252.000,160.979 251.190,159.821 250.200 C 158.662 249.210,157.596 248.400,157.452 248.400 C 157.060 248.400,153.561 244.620,150.603 241.000 C 149.164 239.240,147.720 237.515,147.394 237.166 C 147.067 236.818,146.800 236.317,146.800 236.054 C 146.800 235.790,146.530 235.471,146.200 235.345 C 145.870 235.218,145.600 234.787,145.600 234.388 C 145.600 233.988,145.195 233.153,144.700 232.531 C 142.929 230.306,142.127 228.982,141.835 227.800 C 141.671 227.140,141.304 226.330,141.020 226.000 C 140.735 225.670,140.384 224.743,140.240 223.940 C 140.096 223.137,139.736 222.279,139.440 222.033 C 139.144 221.787,138.778 220.658,138.628 219.524 C 138.477 218.390,138.153 217.088,137.907 216.631 C 135.864 212.832,134.419 192.534,136.050 190.545 C 136.256 190.294,136.628 188.494,136.877 186.545 C 137.127 184.595,137.579 182.707,137.883 182.350 C 138.186 181.992,138.544 181.002,138.679 180.150 C 138.813 179.297,139.255 177.973,139.662 177.206 C 140.068 176.439,140.401 175.539,140.403 175.206 C 140.404 174.873,140.763 174.060,141.200 173.400 C 141.637 172.740,141.996 171.823,141.997 171.362 C 141.999 170.901,142.360 170.198,142.800 169.800 C 143.240 169.402,143.600 168.932,143.600 168.756 C 143.600 168.580,144.053 167.753,144.607 166.918 C 145.161 166.083,145.789 165.130,146.001 164.800 C 148.850 160.378,154.935 153.425,158.079 150.998 C 158.365 150.777,159.609 149.742,160.843 148.698 C 162.077 147.654,163.270 146.800,163.494 146.800 C 163.718 146.800,164.135 146.520,164.419 146.177 C 164.704 145.834,165.491 145.298,166.168 144.985 C 167.498 144.371,168.446 143.798,169.949 142.700 C 170.477 142.315,171.219 142.000,171.600 142.000 C 171.981 142.000,172.721 141.668,173.246 141.262 C 173.771 140.856,174.818 140.404,175.574 140.257 C 176.329 140.111,177.229 139.746,177.574 139.448 C 177.918 139.149,179.004 138.803,179.986 138.679 C 180.968 138.555,181.958 138.199,182.186 137.888 C 182.435 137.547,183.746 137.210,185.480 137.039 C 187.065 136.883,188.955 136.553,189.680 136.306 C 192.686 135.283,207.424 135.213,210.061 136.210 M187.121 155.963 C 186.307 156.130,185.407 156.454,185.121 156.683 C 184.834 156.912,183.747 157.222,182.705 157.373 C 181.662 157.524,180.572 157.885,180.282 158.175 C 179.992 158.465,179.168 158.831,178.450 158.989 C 177.733 159.147,177.055 159.512,176.944 159.802 C 176.833 160.091,176.296 160.440,175.751 160.577 C 174.897 160.791,171.271 163.130,168.630 165.170 C 166.986 166.440,164.790 168.860,164.144 170.113 C 163.779 170.821,163.148 171.635,162.740 171.923 C 162.333 172.210,162.000 172.683,162.000 172.974 C 162.000 173.264,161.742 173.717,161.426 173.979 C 161.110 174.241,160.733 174.995,160.588 175.655 C 160.443 176.314,160.083 176.947,159.787 177.060 C 159.491 177.174,159.128 177.837,158.980 178.533 C 158.832 179.230,158.481 180.070,158.199 180.400 C 157.917 180.730,157.558 181.810,157.400 182.800 C 157.242 183.790,156.824 184.927,156.470 185.327 C 155.947 185.919,155.825 187.093,155.814 191.653 L 155.800 197.252 157.485 198.826 C 162.090 203.129,168.000 199.548,168.000 192.454 C 168.000 190.802,168.234 189.097,168.546 188.480 C 168.847 187.886,169.318 186.441,169.594 185.269 C 169.869 184.097,170.336 183.046,170.632 182.932 C 170.928 182.819,171.293 182.339,171.443 181.865 C 171.854 180.570,174.873 176.000,175.317 176.000 C 175.531 176.000,176.300 175.370,177.026 174.600 C 177.752 173.830,178.476 173.200,178.635 173.200 C 178.794 173.200,179.514 172.750,180.236 172.200 C 180.957 171.650,181.744 171.200,181.986 171.200 C 182.227 171.200,182.524 170.943,182.644 170.630 C 182.764 170.316,183.614 169.937,184.531 169.787 C 185.449 169.637,187.010 169.186,188.000 168.785 C 189.027 168.369,191.183 167.989,193.018 167.899 C 199.900 167.563,203.017 161.977,198.830 157.485 L 197.259 155.800 192.930 155.729 C 190.548 155.691,187.934 155.796,187.121 155.963 M196.989 157.495 C 202.250 161.388,199.182 166.197,190.800 167.192 C 187.738 167.556,184.005 168.641,182.400 169.635 C 182.070 169.839,181.350 170.220,180.800 170.481 C 177.777 171.917,171.982 177.717,170.490 180.800 C 170.224 181.350,169.839 182.070,169.635 182.400 C 168.609 184.058,167.544 187.779,167.181 190.973 C 166.518 196.806,164.918 199.200,161.681 199.200 C 157.293 199.200,155.526 194.242,157.404 187.200 C 157.726 185.990,157.999 184.640,158.009 184.200 C 158.019 183.760,158.375 182.680,158.800 181.800 C 159.225 180.920,159.579 179.907,159.586 179.549 C 159.594 179.191,159.863 178.680,160.185 178.413 C 160.506 178.146,160.892 177.539,161.043 177.064 C 162.670 171.927,175.784 159.615,179.647 159.598 C 179.951 159.596,180.740 159.305,181.400 158.950 C 182.524 158.346,185.962 157.541,190.600 156.795 C 193.295 156.361,195.833 156.639,196.989 157.495 " stroke="none" fill="#63cdef" fill-rule="evenodd"></path></g></svg>